STARTFONT 2.3
FONT -FontForge-Righteous-Book-R-Normal--20-200-72-72-P-108-ISO10646-1
SIZE 20 72 72  4
FONTBOUNDINGBOX 25 25 -3 -5
COMMENT "Generated by fontforge, http://fontforge.sourceforge.net"
COMMENT "Copyright (c) 2011 by Brian J. Bonislawsky DBA Astigmatic (AOETI) (astigma@astigmatic.com), with ReservedFont Name "Righteous""
STARTPROPERTIES 40
FOUNDRY "FontForge"
FAMILY_NAME "Righteous"
WEIGHT_NAME "Book"
SLANT "R"
SETWIDTH_NAME "Normal"
ADD_STYLE_NAME ""
PIXEL_SIZE 20
POINT_SIZE 200
RESOLUTION_X 72
RESOLUTION_Y 72
SPACING "P"
AVERAGE_WIDTH 108
CHARSET_REGISTRY "ISO10646"
CHARSET_ENCODING "1"
FONTNAME_REGISTRY ""
CHARSET_COLLECTIONS "ISO8859-2 ISO8859-9 ISO8859-4 ISO10646-1"
BITS_PER_PIXEL 4
FONT_NAME "Righteous-Regular"
FACE_NAME "Righteous"
COPYRIGHT "Copyright (c) 2011 by Brian J. Bonislawsky DBA Astigmatic (AOETI) (astigma@astigmatic.com), with ReservedFont Name "Righteous""
FONT_VERSION "1.000"
FONT_ASCENT 16
FONT_DESCENT 4
UNDERLINE_POSITION -3
UNDERLINE_THICKNESS 1
X_HEIGHT 10
CAP_HEIGHT 13
RAW_ASCENT 799
RAW_DESCENT 200
NORM_SPACE 6
RELATIVE_WEIGHT 40
RELATIVE_SETWIDTH 50
SUPERSCRIPT_X 0
SUPERSCRIPT_Y 9
SUPERSCRIPT_SIZE 12
SUBSCRIPT_X 0
SUBSCRIPT_Y 2
SUBSCRIPT_SIZE 12
AVG_LOWERCASE_WIDTH 106
AVG_UPPERCASE_WIDTH 126
ENDPROPERTIES
CHARS 372
STARTCHAR space
ENCODING 32
SWIDTH 279 0
DWIDTH 6 0
BBX 1 1 0 0
BITMAP
00
ENDCHAR
STARTCHAR exclam
ENCODING 33
SWIDTH 274 0
DWIDTH 6 0
BBX 4 15 1 -1
BITMAP
EFF6
DFF5
CFF4
BFF4
AFF3
9FF2
9FF1
8FF0
7FE0
6FE0
3870
2960
CFF4
CFF4
2970
ENDCHAR
STARTCHAR quotedbl
ENCODING 34
SWIDTH 409 0
DWIDTH 8 0
BBX 7 5 1 9
BITMAP
FFB9FF20
DFA7FF10
CF96FF00
BF75FD00
46316500
ENDCHAR
STARTCHAR numbersign
ENCODING 35
SWIDTH 561 0
DWIDTH 11 0
BBX 11 10 0 2
BITMAP
000188248600
0004FE0BF800
009CFEAFFB50
02FFFFFFFF40
027FF7BFC600
017FE2DF8100
0EFFFFFFF600
3EFFEEFFD200
03FF1BF90000
05B90AB40000
ENDCHAR
STARTCHAR dollar
ENCODING 36
SWIDTH 458 0
DWIDTH 9 0
BBX 9 14 0 0
BITMAP
0003F90000
0003F90000
0027FB5500
05FFFFFD00
0EFDCCCA00
1FF4321000
0CFFFFF700
02BEFFFF30
022222DF50
2FFFFFFF20
2FFFFFD500
0003F90000
0003F90000
0003F90000
ENDCHAR
STARTCHAR percent
ENCODING 37
SWIDTH 685 0
DWIDTH 14 0
BBX 13 16 0 -1
BITMAP
00131000000000
05EFF60009F800
1EFAFE102FE100
3FB09F40BF6000
4F908F54FD0000
2FD1BF4CF50000
0BFFFC5FC00000
019CA2DF300000
000007FA5CC800
00001EF5FFFF70
00008F98F72FD0
0002FE1AF40DF0
000AF709F50EE0
003FD105FECFA0
00BF60009FFC20
00000000012000
ENDCHAR
STARTCHAR ampersand
ENCODING 38
SWIDTH 485 0
DWIDTH 10 0
BBX 8 14 1 0
BITMAP
0007F500
0018F842
08FFFFF8
6FFDDDD7
BF700000
BF800000
5FFFFD00
4FFFFE00
AFA22200
BF600000
7FEBBBB5
0BFFFFF8
003AF963
0007F500
ENDCHAR
STARTCHAR quotesingle
ENCODING 39
SWIDTH 238 0
DWIDTH 5 0
BBX 3 5 1 9
BITMAP
FFB0
DFA0
CF90
BF70
4630
ENDCHAR
STARTCHAR parenleft
ENCODING 40
SWIDTH 351 0
DWIDTH 7 0
BBX 7 18 0 -2
BITMAP
000AFF60
006FFA00
00DFF200
05FFA000
0AFF4000
0EFE0000
2FFB0000
3FF90000
4FF80000
4FF90000
2FFA0000
0FFD0000
0CFF2000
08FF7000
02FFD000
00BFF500
003FFD00
0009FF70
ENDCHAR
STARTCHAR parenright
ENCODING 41
SWIDTH 351 0
DWIDTH 7 0
BBX 7 18 0 -2
BITMAP
5FFA0000
0AFF6000
02FFE000
00AFF500
004FFA00
000EFE00
000BFF20
0009FF30
0008FF40
0009FF40
000AFF30
000DFF00
002FFC00
007FF800
00DFF200
05FFB000
0DFF3000
7FF90000
ENDCHAR
STARTCHAR asterisk
ENCODING 42
SWIDTH 589 0
DWIDTH 12 0
BBX 11 11 0 6
BITMAP
000059930000
00008FF40000
02608FF40610
0AFDBFFAEF70
2FFFFFFFFFD0
02BFFFFFF920
0008FFFF4000
003EFFFFC100
01DFF9BFFC10
01BFC01EF900
000920047000
ENDCHAR
STARTCHAR plus
ENCODING 43
SWIDTH 485 0
DWIDTH 10 0
BBX 9 9 0 3
BITMAP
0002441000
0007FF3000
0007FF3000
166AFF8660
4FFFFFFFF0
4FFFFFFFF0
1449FF6440
0007FF3000
0006EE3000
ENDCHAR
STARTCHAR comma
ENCODING 44
SWIDTH 264 0
DWIDTH 5 0
BBX 4 6 1 -3
BITMAP
3950
EFF3
EFF4
3DF1
1E90
0510
ENDCHAR
STARTCHAR hyphen
ENCODING 45
SWIDTH 528 0
DWIDTH 11 0
BBX 9 4 1 5
BITMAP
5666666620
CFFFFFFF60
CFFFFFFF60
3444444410
ENDCHAR
STARTCHAR period
ENCODING 46
SWIDTH 263 0
DWIDTH 5 0
BBX 4 4 1 -1
BITMAP
3950
EFF3
EFF3
3A60
ENDCHAR
STARTCHAR slash
ENCODING 47
SWIDTH 490 0
DWIDTH 10 0
BBX 10 14 0 0
BITMAP
000000DFE1
000004FF90
00000AFF30
00002FFC00
00008FF600
0000EFE000
0005FF8000
000BFF2000
002FFB0000
009FF50000
01EFD00000
06FF700000
0CFF100000
3FFA000000
ENDCHAR
STARTCHAR zero
ENCODING 48
SWIDTH 642 0
DWIDTH 13 0
BBX 12 16 0 -1
BITMAP
000002310000
0006DFFFC500
008FFFFFFF60
04FFF96AFFE2
0AFF50007FF7
0EFD00000EFB
1FF900000BFE
2FF800000AFF
2FF800000AFF
1FF900000BFE
0EFD00000EFB
0AFF50007FF8
04FFF96AFFF2
008FFFFFFF60
0006DFFFD500
000002310000
ENDCHAR
STARTCHAR one
ENCODING 49
SWIDTH 317 0
DWIDTH 6 0
BBX 5 14 0 0
BITMAP
4FFFF0
4FFFF0
3CFFF0
00DFF0
00DFF0
00DFF0
00DFF0
00DFF0
00DFF0
00DFF0
00DFF0
00DFF0
00DFF0
00DFF0
ENDCHAR
STARTCHAR two
ENCODING 50
SWIDTH 570 0
DWIDTH 11 0
BBX 11 14 0 0
BITMAP
08FFFFFD6000
08FFFFFFF900
06CCCCCFFF40
00000006FF90
00000003FFA0
0001566CFF60
007FFFFFFD00
05FFFFFFC200
0EFF96640000
2FFB00000000
2FFA00000000
2FFECCCCCC30
2FFFFFFFFF40
2FFFFFFFFF40
ENDCHAR
STARTCHAR three
ENCODING 51
SWIDTH 586 0
DWIDTH 12 0
BBX 10 14 1 0
BITMAP
FFFFFFD700
FFFFFFFFB0
CCCCCCFFF6
0000004FFB
0000001FFB
016666BFF8
04FFFFFFE1
04FFFFFFE1
016666CFF8
0000001FFB
0000004FFA
CCCCCCFFF6
FFFFFFFFB0
FFFFFFD700
ENDCHAR
STARTCHAR four
ENCODING 52
SWIDTH 630 0
DWIDTH 13 0
BBX 12 14 0 0
BITMAP
00EFD0000000
01FFB0049930
03FF9006FF60
05FF6006FF60
07FF4006FF60
09FF2006FF60
0CFF0006FF60
0EFD0006FF60
1FFD999BFFB7
3FFFFFFFFFFC
5FFFFFFFFFFC
13333338FF82
00000006FF60
00000006FF60
ENDCHAR
STARTCHAR five
ENCODING 53
SWIDTH 585 0
DWIDTH 12 0
BBX 10 14 1 0
BITMAP
4FFFFFFFF7
5FFFFFFFF7
7FFDCCCCC5
8FF4000000
AFF2000000
BFFCCCA600
DFFFFFFFB0
EFFFFFFFF7
0000005FFD
0000000DFF
0000002EFE
CCCCCCFFF9
FFFFFFFFD1
FFFFFFD810
ENDCHAR
STARTCHAR six
ENCODING 54
SWIDTH 615 0
DWIDTH 12 0
BBX 12 15 0 -1
BITMAP
0001CFFB1000
000BFF900000
007FFB000000
01EFE4651000
07FFFFFFF800
0CFFFFFFFF90
0FFFD538FFF2
2FFF20008FF7
3FFC00004FF9
3FFD00005FF8
0EFF5000BFF5
08FFF97BFFE1
01CFFFFFFF50
0019FFFFD400
000015640000
ENDCHAR
STARTCHAR seven
ENCODING 55
SWIDTH 516 0
DWIDTH 10 0
BBX 11 14 0 0
BITMAP
8FFFFFFFFF20
8FFFFFFFFC00
6CCCCCEFF600
000000CFF100
000002FFB000
000008FF6000
00000DFF1000
00003FFB0000
00009FF60000
0000EFF10000
0004FFA00000
0009FF500000
000EFE100000
005FFA000000
ENDCHAR
STARTCHAR eight
ENCODING 56
SWIDTH 618 0
DWIDTH 12 0
BBX 12 16 0 -1
BITMAP
000026640000
0019FFFFC300
00CFFFFFFF30
04FFD54AFFA0
07FF6000EFC0
05FF8002FFA0
00DFFB9EFF40
007FFFFFFC00
06FFFCBEFFB0
1EFE4001CFF5
3FF900003FF9
4FFA00004FF9
0EFF7104DFF5
05FFFFFFFFA0
003BFFFFE700
000025530000
ENDCHAR
STARTCHAR nine
ENCODING 57
SWIDTH 616 0
DWIDTH 12 0
BBX 12 15 0 0
BITMAP
000025530000
002BFFFFC300
01DFFFFFFE30
0AFFD88DFFD0
1FFE1001EFF4
4FF900008FF7
4FF800008FF8
2FFD0000CFF7
0DFFA44AFFF5
04FFFFFFFFF1
005EFFFFFFB0
0001575BFF50
0000006FFB00
000005FFE200
00007FFE3000
ENDCHAR
STARTCHAR colon
ENCODING 58
SWIDTH 276 0
DWIDTH 6 0
BBX 4 10 1 -1
BITMAP
0310
8FE2
DFF6
6FD1
0000
0000
2960
BFF5
CFF5
2970
ENDCHAR
STARTCHAR semicolon
ENCODING 59
SWIDTH 276 0
DWIDTH 6 0
BBX 4 12 1 -3
BITMAP
0310
8FE2
DFF6
6FD1
0000
0000
2960
BFF5
CFF6
2CF3
0DC0
0420
ENDCHAR
STARTCHAR less
ENCODING 60
SWIDTH 478 0
DWIDTH 10 0
BBX 9 12 0 2
BITMAP
0000006000
000009FA00
00008FFF50
0008FFF700
007FFF7000
07FFF70000
2FFFC00000
05FFFB1000
005FFFC100
0004EFFD20
00003EFE30
000003D400
ENDCHAR
STARTCHAR equal
ENCODING 61
SWIDTH 539 0
DWIDTH 11 0
BBX 9 8 1 3
BITMAP
4666666630
BFFFFFFF70
BFFFFFFF70
3444444420
4666666630
BFFFFFFF70
BFFFFFFF70
3444444420
ENDCHAR
STARTCHAR greater
ENCODING 62
SWIDTH 478 0
DWIDTH 10 0
BBX 8 12 1 2
BITMAP
02300000
3EE30000
BFFE3000
1CFFE200
01CFFE20
001CFFD2
0005FFFB
004EFFC1
06FFFC10
7FFFB100
8FFA0000
0A900000
ENDCHAR
STARTCHAR question
ENCODING 63
SWIDTH 603 0
DWIDTH 12 0
BBX 12 15 0 -1
BITMAP
3FFFFFFFC300
3FFFFFFFFF60
3CCCCCCDFFE1
00000000AFF5
000000007FF5
00000157EFF2
00004EFFFFA0
0002FFFFF910
0009FFA63000
000CFF100000
000788000000
000395000000
000EFF200000
000EFF200000
0004A5000000
ENDCHAR
STARTCHAR at
ENCODING 64
SWIDTH 629 0
DWIDTH 13 0
BBX 12 12 0 -1
BITMAP
00017BCA6000
005EFFFFFC20
03FFA314CFD1
0BF8289EBCF7
1FD1DFFFC3FC
3FA3FA4FC0EE
2FB2FD9FD5FD
0EF29FFFFFF9
07FC23444441
00BFE9850000
0008FFFB0000
000014530000
ENDCHAR
STARTCHAR A
ENCODING 65
SWIDTH 673 0
DWIDTH 13 0
BBX 12 14 1 0
BITMAP
0018DFEA4000
02DFFFFFF800
1DFFFDEFFF60
6FFD2008FFD0
BFF30000BFF3
DFE000007FF5
DFE000007FF5
DFE000007FF5
DFF99999CFF5
DFFFFFFFFFF5
DFFFFFFFFFF5
DFE333338FF5
DFE000007FF5
DFE000007FF5
ENDCHAR
STARTCHAR B
ENCODING 66
SWIDTH 666 0
DWIDTH 13 0
BBX 12 14 1 0
BITMAP
BFFFFFFFC400
BFFFFFFFFF60
BFFCCCCDFFF2
BFF200008FF6
BFF200006FF7
BFF76667DFF3
BFFFFFFFFF80
BFFFFFFFFF80
BFF76667EFF3
BFF200006FF7
BFF200008FF6
BFFCCCCDFFF2
BFFFFFFFFF60
BFFFFFFFC400
ENDCHAR
STARTCHAR C
ENCODING 67
SWIDTH 640 0
DWIDTH 13 0
BBX 13 16 0 -1
BITMAP
00000013200000
00005CFFFEA300
001BFFFFFFFF40
00BFFFCAAEFD00
07FFE500019400
0EFF4000000000
4FFA0000000000
6FF60000000000
7FF60000000000
5FF90000000000
1EFF3000000000
08FFD300007300
01CFFFB89DFC00
002CFFFFFFFF40
00007DFFFFB400
00000024410000
ENDCHAR
STARTCHAR D
ENCODING 68
SWIDTH 653 0
DWIDTH 13 0
BBX 12 14 1 0
BITMAP
BFFFFDA40000
BFFFFFFFA100
BFFCCEFFFC00
BFF2006EFF80
BFF20003FFE1
BFF200009FF5
BFF200005FF7
BFF200005FF7
BFF200009FF5
BFF20003FFE1
BFF2005EFF80
BFFCCEFFFC00
BFFFFFFFA100
BFFFFDA40000
ENDCHAR
STARTCHAR E
ENCODING 69
SWIDTH 578 0
DWIDTH 12 0
BBX 10 14 1 0
BITMAP
BFFFFFFFFE
BFFFFFFFFE
BFFCCCCCCB
BFF2000000
BFF2000000
BFF7666400
BFFFFFFB00
BFFFFFFB00
BFF7666400
BFF2000000
BFF2000000
BFFCCCCCCB
BFFFFFFFFE
BFFFFFFFFE
ENDCHAR
STARTCHAR F
ENCODING 70
SWIDTH 562 0
DWIDTH 11 0
BBX 11 14 1 0
BITMAP
BFFFFFFFFF20
BFFFFFFFFF20
BFFCCCCCCC10
BFF200000000
BFF200000000
BFF766620000
BFFFFFF40000
BFFFFFF40000
BFF766620000
BFF200000000
BFF200000000
BFF200000000
BFF200000000
BFF200000000
ENDCHAR
STARTCHAR G
ENCODING 71
SWIDTH 665 0
DWIDTH 13 0
BBX 13 16 0 -1
BITMAP
00000012100000
00005BFFFE9200
001AFFFFFFFE30
00BFFFDABEFD00
07FFE400019400
0EFF4000000000
4FFA0000000000
6FF60000000000
7FF6000004EE60
5FF9000004FF70
1EFF300004FF70
08FFD30004FF70
01CFFFA89DFF70
002CFFFFFFFF50
00007DFFFFB400
00000024410000
ENDCHAR
STARTCHAR H
ENCODING 72
SWIDTH 689 0
DWIDTH 14 0
BBX 12 14 1 0
BITMAP
BFF200004FF8
BFF200004FF8
BFF200004FF8
BFF200004FF8
BFF200004FF8
BFF766669FF8
BFFFFFFFFFF8
BFFFFFFFFFF8
BFF766669FF8
BFF200004FF8
BFF200004FF8
BFF200004FF8
BFF200004FF8
BFF200004FF8
ENDCHAR
STARTCHAR I
ENCODING 73
SWIDTH 270 0
DWIDTH 5 0
BBX 4 14 1 0
BITMAP
BFF2
BFF2
BFF2
BFF2
BFF2
BFF2
BFF2
BFF2
BFF2
BFF2
BFF2
BFF2
BFF2
BFF2
ENDCHAR
STARTCHAR J
ENCODING 74
SWIDTH 416 0
DWIDTH 8 0
BBX 8 14 0 0
BITMAP
00009FF3
00009FF3
00009FF3
00009FF3
00009FF3
00009FF3
00009FF3
00009FF3
00009FF3
0000DFF1
1019FFB0
CDEFFF40
CFFFF600
AFEA3000
ENDCHAR
STARTCHAR K
ENCODING 75
SWIDTH 625 0
DWIDTH 13 0
BBX 12 14 1 0
BITMAP
BFF20002EFE2
BFF2000CFF60
BFF2008FF900
BFF204FFD100
BFF22EFE3000
BFF2BFF60000
BFF9FFF60000
BFFFFFFE1000
BFFFEBFF7000
BFFF52FFE100
BFF9009FF900
BFF2001EFF20
BFF20008FFA0
BFF20001EFF3
ENDCHAR
STARTCHAR L
ENCODING 76
SWIDTH 562 0
DWIDTH 11 0
BBX 11 14 1 0
BITMAP
BFF200000000
BFF200000000
BFF200000000
BFF200000000
BFF200000000
BFF200000000
BFF200000000
BFF200000000
BFF200000000
BFF200000000
BFF200000000
BFFCCCCCCC10
BFFFFFFFFF20
BFFFFFFFFF20
ENDCHAR
STARTCHAR M
ENCODING 77
SWIDTH 819 0
DWIDTH 16 0
BBX 15 15 1 0
BITMAP
0001310002200000
01AFFF85DFFD4000
1DFFFFFFFFFFF400
7FFDAEFFFBBFFD00
BFF205FFB00BFF20
CFF003FF9009FF30
CFF003FF9009FF30
CFF003FF9009FF30
CFF003FF9009FF30
CFF003FF9009FF30
CFF003FF9009FF30
CFF003FF9009FF30
CFF003FF9009FF30
CFF003FF9009FF30
CFF003FF9009FF30
ENDCHAR
STARTCHAR N
ENCODING 78
SWIDTH 689 0
DWIDTH 14 0
BBX 12 14 1 0
BITMAP
BFF900004FF8
BFFF30004FF8
BFFFB0004FF8
BFFFF5004FF8
BFFFFD104FF8
BFF9FF804FF8
BFF2DFF24FF8
BFF25FFA4FF8
BFF20BFF9FF8
BFF202FFFFF8
BFF2008FFFF8
BFF2001EFFF8
BFF20006FFF8
BFF20000CFF8
ENDCHAR
STARTCHAR O
ENCODING 79
SWIDTH 777 0
DWIDTH 16 0
BBX 15 16 0 -1
BITMAP
0000001220000000
00005CFFFE920000
001AFFFFFFFE5000
00BFFFCAAEFFF500
07FFE500019FFE10
0EFF40000009FF70
4FFA00000001FFC0
6FF600000000CFF0
7FF600000000CFF0
5FF900000001FFD0
1EFF30000008FF80
08FFD300008FFF20
01CFFFB89DFFF600
002CFFFFFFFF7000
00007DFFFFB40000
0000002431000000
ENDCHAR
STARTCHAR P
ENCODING 80
SWIDTH 642 0
DWIDTH 13 0
BBX 12 14 1 0
BITMAP
BFFFFFEB5000
BFFFFFFFF900
BFFCCCEFFF80
BFF20006FFE1
BFF200009FF5
BFF200005FF7
BFF200008FF6
BFF20003EFF2
BFFA99BFFFA0
BFFFFFFFFC10
BFFFFFFE8100
BFF433200000
BFF200000000
BFF200000000
ENDCHAR
STARTCHAR Q
ENCODING 81
SWIDTH 777 0
DWIDTH 16 0
BBX 15 18 0 -3
BITMAP
0000001220000000
00005CFFFE920000
001AFFFFFFFE5000
00BFFFCAAEFFF500
07FFE500019FFE10
0EFF40000009FF70
4FFA00000001FFC0
6FF600000000CFF0
7FF600000000CFF0
5FF900000001FFD0
1EFF30000008FF80
08FFD300008FFF20
01CFFFB89DFFF600
002CFFFFFFFF7000
00007DFFFFF40000
000000249FF90000
000000001DFF4000
0000000004CCA000
ENDCHAR
STARTCHAR R
ENCODING 82
SWIDTH 651 0
DWIDTH 13 0
BBX 12 14 1 0
BITMAP
BFFFFFEB5000
BFFFFFFFF900
BFFCCCEFFF80
BFF20006FFE1
BFF200009FF5
BFF200005FF7
BFF200008FF6
BFF20003EFF2
BFFA99BFFFA0
BFFFFFFFFC10
BFFFFFFFF100
BFF433AFF600
BFF2003FFC00
BFF2000BFF30
ENDCHAR
STARTCHAR S
ENCODING 83
SWIDTH 610 0
DWIDTH 12 0
BBX 12 14 0 0
BITMAP
005CFFFFFFF2
07FFFFFFFFF2
2FFFDCCCCCC1
7FF800000000
7FF500000000
4FFD76664000
0BFFFFFFFC20
01BFFFFFFFD1
00036666CFF7
000000003FFA
000000006FF9
09CCCCCCFFF4
0BFFFFFFFF90
0BFFFFFFD600
ENDCHAR
STARTCHAR T
ENCODING 84
SWIDTH 578 0
DWIDTH 12 0
BBX 12 14 0 0
BITMAP
CFFFFFFFFFF6
CFFFFFFFFFF6
ACCCEFFCCCC4
00009FF30000
00009FF30000
00009FF30000
00009FF30000
00009FF30000
00009FF30000
00009FF30000
00009FF30000
00009FF30000
00009FF30000
00009FF30000
ENDCHAR
STARTCHAR U
ENCODING 85
SWIDTH 673 0
DWIDTH 13 0
BBX 12 14 1 0
BITMAP
DFE000007FF5
DFE000007FF5
DFE000007FF5
DFE000007FF5
DFE000007FF5
DFE000007FF5
DFE000007FF5
DFE000007FF5
DFE000007FF5
BFF30000BFF3
6FFD2008FFE0
1DFFFDEFFF60
02DFFFFFF800
0018DFEA4000
ENDCHAR
STARTCHAR V
ENCODING 86
SWIDTH 602 0
DWIDTH 12 0
BBX 12 14 0 0
BITMAP
CFF500005FFD
7FFA0000AFF8
3FFE0000EFF3
0DFF4004FFD0
08FF8008FF80
03FFD00DFF30
00DFF22FFD00
008FF77FF800
003FFBBFF300
000DFFFFD000
0008FFFF8000
0003FFFF3000
0000DFFD0000
00009FF90000
ENDCHAR
STARTCHAR W
ENCODING 87
SWIDTH 819 0
DWIDTH 16 0
BBX 15 15 1 -1
BITMAP
CFF003FF9009FF30
CFF003FF9009FF30
CFF003FF9009FF30
CFF003FF9009FF30
CFF003FF9009FF30
CFF003FF9009FF30
CFF003FF9009FF30
CFF003FF9009FF30
CFF003FF9009FF30
CFF003FF9009FF30
BFF205FFB00BFF20
7FFDAEFFFBBFFD00
1DFFFFFFFFFFF400
01AFFF85DFFD4000
0001310002200000
ENDCHAR
STARTCHAR X
ENCODING 88
SWIDTH 608 0
DWIDTH 12 0
BBX 12 14 0 0
BITMAP
AFFA00008FFD
2EFF4002FFF4
07FFD00BFFA0
00DFF75FFE10
004FFEDFF600
0009FFFFC000
0001EFFF3000
0001EFFF3000
0009FFFFC000
004FFEDFF600
00CFF75FFE10
07FFD00BFFA0
2EFF4002FFF4
AFFA00008FFD
ENDCHAR
STARTCHAR Y
ENCODING 89
SWIDTH 620 0
DWIDTH 12 0
BBX 12 14 0 0
BITMAP
6FF600000FFC
6FF600000FFC
6FF600000FFC
6FF600000FFC
6FF700001FFC
3FFC00006FF9
0CFFA216EFF4
04FFFFFFFFA0
005EFFFFFA00
00029FFC4000
00003FF90000
00003FF90000
00003FF90000
00003FF90000
ENDCHAR
STARTCHAR Z
ENCODING 90
SWIDTH 586 0
DWIDTH 12 0
BBX 12 14 0 0
BITMAP
8FFFFFFFFFE1
8FFFFFFFFF70
7CCCCCEFFE10
000001EFF700
000007FFD000
00001EFF6000
00008FFC0000
0002FFF50000
0009FFC00000
002FFF400000
00AFFB000000
03FFFDCCCCC4
0BFFFFFFFFF4
4FFFFFFFFFF4
ENDCHAR
STARTCHAR bracketleft
ENCODING 91
SWIDTH 380 0
DWIDTH 8 0
BBX 6 18 1 -2
BITMAP
BFFFFD
BFFFFD
BFFCCB
BFF100
BFF100
BFF100
BFF100
BFF100
BFF100
BFF100
BFF100
BFF100
BFF100
BFF100
BFF100
BFFCCB
BFFFFD
BFFFFD
ENDCHAR
STARTCHAR backslash
ENCODING 92
SWIDTH 490 0
DWIDTH 10 0
BBX 10 14 0 0
BITMAP
3FFA000000
0CFF100000
06FF700000
01EFD00000
009FF50000
002FFB0000
000BFF2000
0005FF8000
0000EFE000
00008FF600
00002FFC00
00000AFF30
000004FF90
000000DFE1
ENDCHAR
STARTCHAR bracketright
ENCODING 93
SWIDTH 380 0
DWIDTH 8 0
BBX 7 18 0 -2
BITMAP
4FFFFF50
4FFFFF50
3CCDFF50
0007FF50
0007FF50
0007FF50
0007FF50
0007FF50
0007FF50
0007FF50
0007FF50
0007FF50
0007FF50
0007FF50
0007FF50
3CCDFF50
4FFFFF50
4FFFFF50
ENDCHAR
STARTCHAR asciicircum
ENCODING 94
SWIDTH 293 0
DWIDTH 6 0
BBX 6 5 0 9
BITMAP
00A700
0AFF80
AFEFF8
5D34E4
010010
ENDCHAR
STARTCHAR underscore
ENCODING 95
SWIDTH 598 0
DWIDTH 12 0
BBX 10 3 1 -5
BITMAP
2FFFFFFFF1
2FFFFFFFF1
1AAAAAAAA1
ENDCHAR
STARTCHAR grave
ENCODING 96
SWIDTH 225 0
DWIDTH 5 0
BBX 5 4 0 10
BITMAP
0A3000
8FE400
6EFF30
019D10
ENDCHAR
STARTCHAR a
ENCODING 97
SWIDTH 607 0
DWIDTH 12 0
BBX 12 12 0 -1
BITMAP
0005ACC71041
00BFFFFFD7F2
09FFFDFFFFF2
2FFE3019FFF2
6FF60000DFF2
8FF300009FF2
7FF50000BFF2
4FFB0004FFF2
0DFFD8AFFFF2
03EFFFFFFCF2
003BFFFC40C2
000013200000
ENDCHAR
STARTCHAR b
ENCODING 98
SWIDTH 597 0
DWIDTH 12 0
BBX 12 16 0 -1
BITMAP
299500000000
3FF700000000
3FF700000000
3FF700000000
3FF87CCA4000
3FFEFFFFFA00
3FFFFEEFFF80
3FFF8004EFF1
3FFC00008FF5
3FF800004FF7
2FFA00006FF6
0DFF3001DFF3
07FFF98DFFB0
00BFFFFFFE20
0007EFFFA200
000002310000
ENDCHAR
STARTCHAR c
ENCODING 99
SWIDTH 521 0
DWIDTH 10 0
BBX 10 12 0 -1
BITMAP
0004ACB810
009FFFFFE4
08FFFEEFFE
1FFE4009F5
6FF7000040
8FF3000000
8FF4000000
4FFB0003A0
0CFFD89EFA
03EFFFFFF9
002AFFFD60
0000132000
ENDCHAR
STARTCHAR d
ENCODING 100
SWIDTH 606 0
DWIDTH 12 0
BBX 12 16 0 -1
BITMAP
000000005991
000000008FF2
000000008FF2
000000008FF2
0005ACC79FF2
00AFFFFFEFF2
09FFFDFFFFF2
2FFE3019FFF2
6FF60000DFF2
8FF300009FF2
7FF50000BFF2
4FFC1004FFF2
0CFFD8AFFFF2
02EFFFFFFCF2
002AFFFC41D2
000013200000
ENDCHAR
STARTCHAR e
ENCODING 101
SWIDTH 524 0
DWIDTH 11 0
BBX 10 12 0 -1
BITMAP
0005ACC820
01BFFFFFE5
09FFFDEFFE
2FFE31DFF4
6FF609FF70
8FF36FF900
7FF7EFB000
4FFFFD13A0
0CFFFA9EFA
02EFFFFFFA
002AFFFD60
0000132000
ENDCHAR
STARTCHAR f
ENCODING 102
SWIDTH 395 0
DWIDTH 8 0
BBX 9 16 0 0
BITMAP
0000379940
0008FFFF60
007FFFFF60
00EFE51100
03FF800000
49FFA77500
8FFFFFFA00
8FFFFFFA00
26FF833200
04FF600000
04FF600000
04FF600000
04FF600000
04FF600000
04FF600000
04FF600000
ENDCHAR
STARTCHAR g
ENCODING 103
SWIDTH 607 0
DWIDTH 12 0
BBX 12 15 0 -4
BITMAP
0005ACC71041
00AFFFFFD7F2
09FFFDFFFFF2
2FFE3019FFF2
6FF60000DFF2
8FF300009FF2
7FF50000BFF2
4FFC0004FFF2
0DFFD8AFFFF2
03EFFFFFFFF2
002BFFFDEFF1
00001324FFC0
00005ACFFF40
00008FFFF700
00008FEB4000
ENDCHAR
STARTCHAR h
ENCODING 104
SWIDTH 562 0
DWIDTH 11 0
BBX 10 15 1 0
BITMAP
9960000000
FFA0000000
FFA0000000
FFA0000000
FFB6994000
FFFFFFFA10
FFFFFFFF90
FFF714EFF1
FFC0006FF5
FFA0005FF5
FFA0005FF5
FFA0005FF5
FFA0005FF5
FFA0005FF5
FFA0005FF5
ENDCHAR
STARTCHAR i
ENCODING 105
SWIDTH 235 0
DWIDTH 5 0
BBX 5 15 0 0
BITMAP
1CF900
5FFF10
3FFD00
036200
077500
0FFB00
0FFB00
0FFB00
0FFB00
0FFB00
0FFB00
0FFB00
0FFB00
0FFB00
0FFB00
ENDCHAR
STARTCHAR j
ENCODING 106
SWIDTH 237 0
DWIDTH 5 0
BBX 8 19 -3 -4
BITMAP
0001BF90
0005FFF2
0002FFE1
00003620
00007750
0000FFC0
0000FFC0
0000FFC0
0000FFC0
0000FFC0
0000FFC0
0000FFC0
0000FFC0
0000FFB0
0002FF90
001BFF50
ABEFFC00
EFFFD200
EED81000
ENDCHAR
STARTCHAR k
ENCODING 107
SWIDTH 539 0
DWIDTH 11 0
BBX 10 15 1 0
BITMAP
9970000000
FFB0000000
FFB0000000
FFB0000000
FFB0003774
FFB002EFE1
FFB01CFF30
FFB0AFF600
FFB7FF9000
FFDFFF9000
FFFFFFF300
FFFF9FFB00
FFF90BFF50
FFD003FFD0
FFB0009FF7
ENDCHAR
STARTCHAR l
ENCODING 108
SWIDTH 235 0
DWIDTH 5 0
BBX 3 15 1 0
BITMAP
9970
FFB0
FFB0
FFB0
FFB0
FFB0
FFB0
FFB0
FFB0
FFB0
FFB0
FFB0
FFB0
FFB0
FFB0
ENDCHAR
STARTCHAR m
ENCODING 109
SWIDTH 762 0
DWIDTH 15 0
BBX 14 11 1 0
BITMAP
60499402897100
FDFFFFAFFFFD20
FFFFFFFFFFFFC0
FFE33EFF61BFF3
FFA00AFF005FF5
FFA00AFF005FF5
FFA00AFF005FF5
FFA00AFF005FF5
FFA00AFF005FF5
FFA00AFF005FF5
FFA00AFF005FF5
ENDCHAR
STARTCHAR n
ENCODING 110
SWIDTH 562 0
DWIDTH 11 0
BBX 10 11 1 0
BITMAP
6027A94000
FAFFFFFA00
FFFFFFFF90
FFF714EFF1
FFC0006FF5
FFA0004FF5
FFA0004FF5
FFA0004FF5
FFA0004FF5
FFA0004FF5
FFA0004FF5
ENDCHAR
STARTCHAR o
ENCODING 111
SWIDTH 579 0
DWIDTH 12 0
BBX 12 12 0 -1
BITMAP
0005ACC82000
00AFFFFFF500
09FFFDEFFF30
2FFE3008FFB0
6FF60000DFF0
8FF300009FF1
7FF40000BFF1
4FFC1004FFC0
0CFFD8AFFF50
02EFFFFFF900
002AFFFD6000
000013200000
ENDCHAR
STARTCHAR p
ENCODING 112
SWIDTH 608 0
DWIDTH 12 0
BBX 11 15 1 -4
BITMAP
6006BCB60000
F8CFFFFFC100
FFFFFDFFFC00
FFFA102CFF40
FFE10003FF90
FFC00000FFA0
FFD00002FFA0
FFF60009FF70
FFFFA8CFFE10
FFFFFFFFF500
FFCBFFFC4000
FFB013100000
FFB000000000
FFB000000000
FFA000000000
ENDCHAR
STARTCHAR q
ENCODING 113
SWIDTH 607 0
DWIDTH 12 0
BBX 12 15 0 -4
BITMAP
0005ACB71041
01BFFFFFD7F2
09FFFDFFFFF2
2FFE3019FFF2
6FF60000DFF2
8FF300009FF2
7FF50000BFF2
4FFB0004FFF2
0CFFD8AFFFF2
03EFFFFFFFF2
002AFFFCBFF2
000013208FF2
000000008FF2
000000008FF2
000000008FF2
ENDCHAR
STARTCHAR r
ENCODING 114
SWIDTH 414 0
DWIDTH 8 0
BBX 8 11 1 0
BITMAP
50046770
F8DFFFF1
FFFFFFF1
FFFA4330
FFD00000
FFA00000
FFA00000
FFA00000
FFA00000
FFA00000
FFA00000
ENDCHAR
STARTCHAR s
ENCODING 115
SWIDTH 523 0
DWIDTH 10 0
BBX 11 11 0 0
BITMAP
001677777300
04EFFFFFF600
1EFFFFFFF600
4FF933333100
3FFB77651000
0DFFFFFFD300
02CFFFFFFC00
0002333BFF10
3AAAAAAEFE00
5FFFFFFFF700
5FFFFFFD7000
ENDCHAR
STARTCHAR t
ENCODING 116
SWIDTH 437 0
DWIDTH 9 0
BBX 9 15 0 0
BITMAP
0499200000
06FF400000
06FF400000
06FF400000
5AFF977720
BFFFFFFF40
BFFFFFFF40
28FF633310
06FF400000
06FF400000
06FF400000
04FFA00000
00DFFDAA30
003EFFFF40
0002AEFF40
ENDCHAR
STARTCHAR u
ENCODING 117
SWIDTH 562 0
DWIDTH 11 0
BBX 11 12 0 -1
BITMAP
177400037710
2FF80007FF30
2FF80007FF30
2FF80007FF30
2FF80007FF30
2FF80007FF30
2FF90007FF30
0FFD000CFF30
0AFFC8CFFF30
02EFFFFFEF30
002BFFF91C30
000013100000
ENDCHAR
STARTCHAR v
ENCODING 118
SWIDTH 532 0
DWIDTH 11 0
BBX 11 11 0 0
BITMAP
677100037740
AFF5000BFF40
4FFB001FFD00
0DFF107FF800
07FF60CFF200
02FFC2FFB000
00BFF9FF6000
005FFFFE1000
000EFFF90000
0009FFF30000
0003FFD00000
ENDCHAR
STARTCHAR w
ENCODING 119
SWIDTH 756 0
DWIDTH 15 0
BBX 15 12 0 -1
BITMAP
0774005760037710
1FF900CFD007FF30
1FF900CFD007FF30
1FF900CFD007FF30
1FF900CFD007FF30
1FF900CFD007FF30
1FF900CFD007FF30
1FFA00DFE008FF30
0DFF9AFFFB8EFE10
04FFFFFFFFFFF600
005EFFC5BFFE6000
0000220002300000
ENDCHAR
STARTCHAR x
ENCODING 120
SWIDTH 528 0
DWIDTH 11 0
BBX 11 11 0 0
BITMAP
788300068830
5FFD105FFD10
09FF91EFE300
00CFFDFF6000
002EFFFA0000
0006FFE10000
000CFFF60000
008FFFFF3000
04FFC4FFC000
1EFF309FF900
BFF8001DFF40
ENDCHAR
STARTCHAR y
ENCODING 121
SWIDTH 562 0
DWIDTH 11 0
BBX 11 15 0 -4
BITMAP
177400037720
2FF80007FF40
2FF80007FF40
2FF80007FF40
2FF80007FF40
2FF80007FF40
2FF90007FF40
0FFC000CFF40
0AFFC8CFFF40
02EFFFFFFF40
002BFFEEFF20
0000134FFD00
0005ACFFF600
0007FFFF8000
0007FEB50000
ENDCHAR
STARTCHAR z
ENCODING 122
SWIDTH 481 0
DWIDTH 10 0
BBX 10 11 0 0
BITMAP
4777777770
8FFFFFFFA0
8FFFFFFF20
23338FF800
0000DFE100
0007FF6000
001EFC0000
009FF40000
02FFEAAAA2
0BFFFFFFF3
4FFFFFFFF3
ENDCHAR
STARTCHAR braceleft
ENCODING 123
SWIDTH 466 0
DWIDTH 9 0
BBX 9 18 0 -2
BITMAP
00019EFF90
000AFFFF90
000EFECC70
000FFC0000
000FFC0000
000FFC0000
001FFC0000
58CFF80000
9FFFA10000
9FFFD20000
349FF90000
001FFC0000
000FFC0000
000FFC0000
000FFC0000
000EFECC70
0009FFFF90
00019EFF90
ENDCHAR
STARTCHAR bar
ENCODING 124
SWIDTH 267 0
DWIDTH 5 0
BBX 4 18 1 -2
BITMAP
BFF1
BFF1
BFF1
BFF1
BFF1
BFF1
BFF1
BFF1
BFF1
BFF1
BFF1
BFF1
BFF1
BFF1
BFF1
BFF1
BFF1
BFF1
ENDCHAR
STARTCHAR braceright
ENCODING 125
SWIDTH 466 0
DWIDTH 9 0
BBX 9 18 0 -2
BITMAP
4FFFC30000
4FFFFE1000
3CCDFF4000
0007FF5000
0007FF5000
0007FF5000
0007FF6000
0003FFE870
00006FFFF0
00009FFFF0
0004FFC540
0007FF6000
0007FF5000
0007FF5000
0007FF5000
3CCDFF4000
4FFFFE1000
4FFFC30000
ENDCHAR
STARTCHAR asciitilde
ENCODING 126
SWIDTH 451 0
DWIDTH 9 0
BBX 7 5 1 5
BITMAP
01200120
7FFA1FF0
EFFFEFF0
EF5AFFA0
67205500
ENDCHAR
STARTCHAR nonbreakingspace
ENCODING 160
SWIDTH 279 0
DWIDTH 6 0
BBX 1 1 0 0
BITMAP
00
ENDCHAR
STARTCHAR exclamdown
ENCODING 161
SWIDTH 274 0
DWIDTH 6 0
BBX 4 15 1 -3
BITMAP
4C90
DFF5
BFF3
1640
4B90
6FE0
7FF0
8FF0
9FF1
AFF2
AFF3
BFF4
CFF5
DFF5
BCC5
ENDCHAR
STARTCHAR cent
ENCODING 162
SWIDTH 462 0
DWIDTH 9 0
BBX 9 14 0 0
BITMAP
0000DE0000
0000DE0000
0005EF6000
00BFFFFC10
08FF99EF40
0EF5004500
2FF0000000
2FF1000000
0DFA219A00
04FFFFFF40
004CFFD500
0000DE0000
0000DE0000
0000DE0000
ENDCHAR
STARTCHAR sterling
ENCODING 163
SWIDTH 681 0
DWIDTH 14 0
BBX 13 14 0 0
BITMAP
00004CFE000000
0006FFFE000000
001EFFDB000000
006FF900000000
007FF500000000
007FF500000000
1FFFFFF5000000
1FFFFFF5000000
1ACFFCA3000000
007FF500003330
007FF50002FFD0
007FFDCCCEFF90
007FFFFFFFFD10
007FFFFFFE9100
ENDCHAR
STARTCHAR currency
ENCODING 164
SWIDTH 454 0
DWIDTH 9 0
BBX 9 9 0 2
BITMAP
0720002800
4FEDFDEF50
09FD9DF900
09F202F900
0AF000EA00
07F717F700
2DFFFFFD20
1C86868D20
0100000100
ENDCHAR
STARTCHAR yen
ENCODING 165
SWIDTH 653 0
DWIDTH 13 0
BBX 13 14 0 0
BITMAP
1FFB00000AFF20
1FFB00000AFF20
1FFB00000AFF20
1FFB00000AFF20
0FFC00000BFF10
0DFF20001EFE00
08FFD413CFF900
01CFFFFFFFD100
024CFFFFFD5200
08FFFFFFFFFA00
08FFFFFFFFFA00
04777EFF777400
00000DFE000000
00000DFE000000
ENDCHAR
STARTCHAR brokenbar
ENCODING 166
SWIDTH 269 0
DWIDTH 5 0
BBX 4 18 1 -2
BITMAP
BFF2
BFF2
BFF2
BFF2
BFF2
BFF2
BFF2
BFF2
0000
0000
BFF2
BFF2
BFF2
BFF2
BFF2
BFF2
BFF2
BFF2
ENDCHAR
STARTCHAR section
ENCODING 167
SWIDTH 569 0
DWIDTH 11 0
BBX 10 14 1 0
BITMAP
05CFFFFFB0
5FFFFFFFB0
CFFAAAAA70
DFD5554100
9FFFFFFE50
8FFFFFFFE2
DFE6558FF7
DFE5558FF6
8FFFFFFFF2
0AFFFFFFF3
0035558FF7
9AAAAACFF6
EFFFFFFFD1
EFFFFFEB20
ENDCHAR
STARTCHAR dieresis
ENCODING 168
SWIDTH 300 0
DWIDTH 6 0
BBX 6 3 0 10
BITMAP
BF43EB
EF65FE
250053
ENDCHAR
STARTCHAR copyright
ENCODING 169
SWIDTH 655 0
DWIDTH 13 0
BBX 13 12 0 1
BITMAP
000048A9400000
001BFDBDFC2000
01CE43644DD100
08F3AFFF92E900
0D97E403307E10
1F5C8000003F30
1F5D8000003F30
0D98E201207E10
08F3BFDF91E900
01CE55864DD100
001BFDBDFC2000
000048A9500000
ENDCHAR
STARTCHAR ordfeminine
ENCODING 170
SWIDTH 451 0
DWIDTH 9 0
BBX 7 11 1 4
BITMAP
00131000
09FFE780
7FA6DF80
BD003F80
CD003F80
8F84CF80
1CFFEA80
00352020
44444420
DFFFFF80
34444420
ENDCHAR
STARTCHAR guillemotleft
ENCODING 171
SWIDTH 704 0
DWIDTH 14 0
BBX 14 10 0 0
BITMAP
00003D40003D40
0003EFE103EFE1
003EFF503EFF50
02EFF502EFF500
2DFF502DFF5000
2DFF802DFF8000
02DFF902DFF900
001CFFA01CFFA0
0001CFC101BFC1
00001910001910
ENDCHAR
STARTCHAR logicalnot
ENCODING 172
SWIDTH 529 0
DWIDTH 11 0
BBX 9 6 1 3
BITMAP
5666666620
CFFFFFFF60
CFFFFFFF60
344447FF60
000004FF50
0000013310
ENDCHAR
STARTCHAR uni00AD
ENCODING 173
SWIDTH 418 0
DWIDTH 8 0
BBX 7 4 1 5
BITMAP
56666610
CFFFFF30
CFFFFF30
34444410
ENDCHAR
STARTCHAR registered
ENCODING 174
SWIDTH 439 0
DWIDTH 9 0
BBX 8 9 0 6
BITMAP
00001000
008EDE60
08BA96C5
1D2C4C4D
3B2B1B3E
1D2EDA2D
09A719B6
008ECD60
00012000
ENDCHAR
STARTCHAR macron
ENCODING 175
SWIDTH 247 0
DWIDTH 5 0
BBX 5 3 0 10
BITMAP
CCCCB0
FFFFE0
444440
ENDCHAR
STARTCHAR degree
ENCODING 176
SWIDTH 381 0
DWIDTH 8 0
BBX 7 7 0 7
BITMAP
00598200
08FFFE30
1FF8BFB0
3FD04FD0
1EFADFA0
06FFFD20
00376100
ENDCHAR
STARTCHAR plusminus
ENCODING 177
SWIDTH 516 0
DWIDTH 10 0
BBX 9 11 1 0
BITMAP
002AA50000
002FF80000
667FFB6620
EFFFFFFF40
EFFFFFFF40
446FF94410
002FF80000
0015520000
9AAAAAAA30
EFFFFFFF40
EFFFFFFF40
ENDCHAR
STARTCHAR twosuperior
ENCODING 178
SWIDTH 355 0
DWIDTH 7 0
BBX 6 7 1 7
BITMAP
AFFD50
9EEFE0
068EF1
8FFF90
DF7410
EFFFE0
CDDDC0
ENDCHAR
STARTCHAR threesuperior
ENCODING 179
SWIDTH 354 0
DWIDTH 7 0
BBX 6 7 1 7
BITMAP
DFFD50
CEEFF1
188EF2
1FFFE0
166DF2
DFFFE1
BDDC40
ENDCHAR
STARTCHAR acute
ENCODING 180
SWIDTH 225 0
DWIDTH 5 0
BBX 5 4 0 10
BITMAP
009400
0AFE20
AFFA20
6D5000
ENDCHAR
STARTCHAR mu
ENCODING 181
SWIDTH 571 0
DWIDTH 11 0
BBX 10 16 1 -5
BITMAP
5760001774
CFD0001FF8
CFD0001FF8
CFD0001FF8
CFD0001FF8
CFD0001FF8
CFE0002FF8
CFF3007FF8
CFFE8AFFF8
CFFFFFFFF8
CFDEFFC378
CF80220000
CF70000000
CF60000000
CF50000000
5620000000
ENDCHAR
STARTCHAR paragraph
ENCODING 182
SWIDTH 808 0
DWIDTH 16 0
BBX 15 14 0 0
BITMAP
00039DFFFFFFFFB0
006FFFFFFFFFFFB0
04FFFEDFFECCFFB0
0CFF904FF801FFB0
1FFD004FF801FFB0
3FF9004FF801FFB0
2FFB004FF801FFB0
0DFF604FF801FFB0
06FFFCBFF801FFB0
009FFFFFF801FFB0
0006DFFFF801FFB0
0000026FF801FFB0
0000004FF801FFB0
0000004FF801FFB0
ENDCHAR
STARTCHAR periodcentered
ENCODING 183
SWIDTH 261 0
DWIDTH 5 0
BBX 4 4 1 5
BITMAP
3950
EFF2
EFF2
3950
ENDCHAR
STARTCHAR cedilla
ENCODING 184
SWIDTH 208 0
DWIDTH 4 0
BBX 5 6 0 -5
BITMAP
018000
07D000
0AFC00
64DF20
DFFD00
166100
ENDCHAR
STARTCHAR onesuperior
ENCODING 185
SWIDTH 231 0
DWIDTH 5 0
BBX 4 7 0 7
BITMAP
1FF6
1EF6
08F6
08F6
08F6
08F6
06D5
ENDCHAR
STARTCHAR ordmasculine
ENCODING 186
SWIDTH 432 0
DWIDTH 9 0
BBX 7 11 1 4
BITMAP
00231000
09FFE500
7FA6DF20
CD003F60
CD003F60
8F84CF20
1BFFF600
00352000
44444420
DFFFFF80
34444420
ENDCHAR
STARTCHAR guillemotright
ENCODING 187
SWIDTH 703 0
DWIDTH 14 0
BBX 14 10 0 0
BITMAP
03D40003D40000
1EFE301EFE3000
04EFE304EFE300
004EFE304EFE30
0004FFE204FFE2
0007FFD207FFD2
008FFD208FFD20
09FFD209FFD200
0BFC100BFC1000
01910001910000
ENDCHAR
STARTCHAR onequarter
ENCODING 188
SWIDTH 648 0
DWIDTH 13 0
BBX 13 14 0 0
BITMAP
08FF0000DF4000
08FF0006FB0000
00EF001EF30000
00EF008F900000
00EF01EE100000
00EF09F8000000
00CD3FE1000000
0000BF6AD44200
0004FD0DF5F900
000CF50FE4F900
005FB02FC6FA10
00DF304FFFFF40
07FA005CCDFE30
1EF2000004F900
ENDCHAR
STARTCHAR onehalf
ENCODING 189
SWIDTH 637 0
DWIDTH 13 0
BBX 12 14 0 0
BITMAP
08FF0000DF40
08FF0006FB00
00EF001EF300
00EF008F9000
00EF01EE1000
00EF09F80000
00CD3FE10000
0000BF6ADDB2
0004FD0CFFFC
000CF50047FE
005FB008FFF9
00DF300EE850
07FA000FFEEC
1EF2000FFFFD
ENDCHAR
STARTCHAR threequarters
ENCODING 190
SWIDTH 708 0
DWIDTH 14 0
BBX 14 14 0 0
BITMAP
2FFFC3000AF700
2EEEFB003FD100
0389FD00BF6000
05FFFA04FC0000
0367FD0CF40000
2FFFFB6FB00000
2DDDA2DF300000
000007FA7D6430
00001EF2AF5FD0
00009F80CF3FD0
0002FE10EF4FD1
000AF701FFFFF7
004FD002CCCFE5
00CF5000001FD0
ENDCHAR
STARTCHAR questiondown
ENCODING 191
SWIDTH 602 0
DWIDTH 12 0
BBX 12 15 0 -3
BITMAP
0000007C6000
000002FFF100
000001EFE000
000000272000
000000AB9000
000001FFD000
00058CFF9000
01BFFFFE2000
0AFFFFC30000
2FFE52000000
5FF800000000
3FFC10000000
0CFFFFFFFFF4
03EFFFFFFFF4
0019CCCCCCC3
ENDCHAR
STARTCHAR Agrave
ENCODING 192
SWIDTH 673 0
DWIDTH 13 0
BBX 12 19 1 0
BITMAP
000850000000
005FF6000000
004DFF600000
00007E200000
000000000000
0018DFEA4000
02DFFFFFF800
1DFFFDEFFF60
6FFD2008FFD0
BFF30000BFF3
DFE000007FF5
DFE000007FF5
DFE000007FF5
DFF99999CFF5
DFFFFFFFFFF5
DFFFFFFFFFF5
DFE333338FF5
DFE000007FF5
DFE000007FF5
ENDCHAR
STARTCHAR Aacute
ENCODING 193
SWIDTH 673 0
DWIDTH 13 0
BBX 12 19 1 0
BITMAP
0000002B1000
000002DFB000
00002EFF7000
00000BB20000
000000000000
0018DFEA4000
02DFFFFFF800
1DFFFDEFFF60
6FFD2008FFD0
BFF30000BFF3
DFE000007FF5
DFE000007FF5
DFE000007FF5
DFF99999CFF5
DFFFFFFFFFF5
DFFFFFFFFFF5
DFE333338FF5
DFE000007FF5
DFE000007FF5
ENDCHAR
STARTCHAR Acircumflex
ENCODING 194
SWIDTH 673 0
DWIDTH 13 0
BBX 12 19 1 0
BITMAP
00001A300000
0001BFE40000
000AFCFF3000
000390490000
000000000000
0018DFEA4000
02DFFFFFF800
1DFFFDEFFF60
6FFD2008FFD0
BFF30000BFF3
DFE000007FF5
DFE000007FF5
DFE000007FF5
DFF99999CFF5
DFFFFFFFFFF5
DFFFFFFFFFF5
DFE333338FF5
DFE000007FF5
DFE000007FF5
ENDCHAR
STARTCHAR Atilde
ENCODING 195
SWIDTH 673 0
DWIDTH 13 0
BBX 12 18 1 0
BITMAP
0008B70AA000
005FFFBFE000
007FAAFFA000
002840561000
0018DFEA4000
02DFFFFFF800
1DFFFDEFFF60
6FFD2008FFD0
BFF30000BFF3
DFE000007FF5
DFE000007FF5
DFE000007FF5
DFF99999CFF5
DFFFFFFFFFF5
DFFFFFFFFFF5
DFE333338FF5
DFE000007FF5
DFE000007FF5
ENDCHAR
STARTCHAR Adieresis
ENCODING 196
SWIDTH 673 0
DWIDTH 13 0
BBX 12 17 1 0
BITMAP
001ED16F7000
003FF29FA000
000440161000
0018DFEA4000
02DFFFFFF800
1DFFFDEFFF60
6FFD2008FFD0
BFF30000BFF3
DFE000007FF5
DFE000007FF5
DFE000007FF5
DFF99999CFF5
DFFFFFFFFFF5
DFFFFFFFFFF5
DFE333338FF5
DFE000007FF5
DFE000007FF5
ENDCHAR
STARTCHAR Aring
ENCODING 197
SWIDTH 673 0
DWIDTH 13 0
BBX 12 18 1 0
BITMAP
000002100000
0000AFE30000
0002F5C90000
0001ECE60000
0018EFFA4000
02DFFFFFF700
0DFFFDEFFF50
6FFD2008FFD0
BFF30000BFF3
DFE000007FF5
DFE000007FF5
DFE000007FF5
DFF99999CFF5
DFFFFFFFFFF5
DFFFFFFFFFF5
DFE333338FF5
DFE000007FF5
DFE000007FF5
ENDCHAR
STARTCHAR AE
ENCODING 198
SWIDTH 988 0
DWIDTH 20 0
BBX 19 14 1 0
BITMAP
0018DFFFFFFFFFFFFF20
02DFFFFFFFFFFFFFFF20
1DFFFDCCDFFDCCCCCC10
6FFD20007FF500000000
BFF300007FF500000000
DFE000007FF966660000
DFE000007FFFFFFE0000
DFE000007FFFFFFE0000
DFF99999CFF966660000
DFFFFFFFFFF500000000
DFFFFFFFFFF500000000
DFE333339FFDCCCCCC10
DFE000007FFFFFFFFF20
DFE000007FFFFFFFFF20
ENDCHAR
STARTCHAR Ccedilla
ENCODING 199
SWIDTH 640 0
DWIDTH 13 0
BBX 13 20 0 -5
BITMAP
00000013200000
00005CFFFEA300
001BFFFFFFFF40
00BFFFCAAEFD00
07FFE500019400
0EFF4000000000
4FFA0000000000
6FF60000000000
6FF60000000000
5FF90000000000
1EFF3000000000
09FFD300007300
01DFFFB89DFC00
002DFFFFFFFF40
00017DFFFFB400
000001F7410000
000005EF400000
0000278F800000
00006FFF400000
00000573000000
ENDCHAR
STARTCHAR Egrave
ENCODING 200
SWIDTH 578 0
DWIDTH 12 0
BBX 10 19 1 0
BITMAP
001B200000
00AFD20000
007EFE2000
0002AB0000
0000000000
BFFFFFFFFE
BFFFFFFFFE
BFFCCCCCCB
BFF2000000
BFF2000000
BFF7666400
BFFFFFFB00
BFFFFFFB00
BFF7666400
BFF2000000
BFF2000000
BFFCCCCCCB
BFFFFFFFFE
BFFFFFFFFE
ENDCHAR
STARTCHAR Eacute
ENCODING 201
SWIDTH 578 0
DWIDTH 12 0
BBX 10 19 1 0
BITMAP
0000008600
000009FE30
00009FFB20
00005E5000
0000000000
BFFFFFFFFE
BFFFFFFFFE
BFFCCCCCCB
BFF2000000
BFF2000000
BFF7666400
BFFFFFFB00
BFFFFFFB00
BFF7666400
BFF2000000
BFF2000000
BFFCCCCCCB
BFFFFFFFFE
BFFFFFFFFE
ENDCHAR
STARTCHAR Ecircumflex
ENCODING 202
SWIDTH 578 0
DWIDTH 12 0
BBX 10 19 1 0
BITMAP
0000680000
0007FF9000
005FEDF800
000A31A200
0000000000
BFFFFFFFFE
BFFFFFFFFE
BFFCCCCCCB
BFF2000000
BFF2000000
BFF7666400
BFFFFFFB00
BFFFFFFB00
BFF7666400
BFF2000000
BFF2000000
BFFCCCCCCB
BFFFFFFFFE
BFFFFFFFFE
ENDCHAR
STARTCHAR Edieresis
ENCODING 203
SWIDTH 578 0
DWIDTH 12 0
BBX 10 17 1 0
BITMAP
00AF52EC00
00CF74FF10
0025004300
BFFFFFFFFE
BFFFFFFFFE
BFFCCCCCCB
BFF2000000
BFF2000000
BFF7666400
BFFFFFFB00
BFFFFFFB00
BFF7666400
BFF2000000
BFF2000000
BFFCCCCCCB
BFFFFFFFFE
BFFFFFFFFE
ENDCHAR
STARTCHAR Igrave
ENCODING 204
SWIDTH 270 0
DWIDTH 5 0
BBX 6 19 -1 0
BITMAP
076000
4FF700
3CFF70
007E30
000000
00BFF2
00BFF2
00BFF2
00BFF2
00BFF2
00BFF2
00BFF2
00BFF2
00BFF2
00BFF2
00BFF2
00BFF2
00BFF2
00BFF2
ENDCHAR
STARTCHAR Iacute
ENCODING 205
SWIDTH 270 0
DWIDTH 5 0
BBX 5 19 1 0
BITMAP
002B10
03EFA0
2EFE70
0CA200
000000
BFF200
BFF200
BFF200
BFF200
BFF200
BFF200
BFF200
BFF200
BFF200
BFF200
BFF200
BFF200
BFF200
BFF200
ENDCHAR
STARTCHAR Icircumflex
ENCODING 206
SWIDTH 270 0
DWIDTH 5 0
BBX 6 19 0 0
BITMAP
01A300
1BFE40
BFCFF2
390490
000000
0BFF20
0BFF20
0BFF20
0BFF20
0BFF20
0BFF20
0BFF20
0BFF20
0BFF20
0BFF20
0BFF20
0BFF20
0BFF20
0BFF20
ENDCHAR
STARTCHAR Idieresis
ENCODING 207
SWIDTH 270 0
DWIDTH 5 0
BBX 7 17 -1 0
BITMAP
2ED16F60
3FF29F90
04401610
00BFF200
00BFF200
00BFF200
00BFF200
00BFF200
00BFF200
00BFF200
00BFF200
00BFF200
00BFF200
00BFF200
00BFF200
00BFF200
00BFF200
ENDCHAR
STARTCHAR Eth
ENCODING 208
SWIDTH 672 0
DWIDTH 13 0
BBX 13 14 0 0
BITMAP
05FFFFEC710000
05FFFFFFFD3000
05FFECDFFFF300
05FF8003CFFD00
05FF80000CFF60
69FFB61003FFB0
EFFFFF2000EFD0
EFFFFF2000EFD0
37FF940003FFB0
05FF80000CFF60
05FF8002BFFD00
05FFECDFFFF300
05FFFFFFFD3000
05FFFFEC710000
ENDCHAR
STARTCHAR Ntilde
ENCODING 209
SWIDTH 689 0
DWIDTH 14 0
BBX 12 18 1 0
BITMAP
0006B808C000
003FFFCEF100
004FC8FFC000
001860471000
BFF900004FF8
BFFF30004FF8
BFFFB0004FF8
BFFFF5004FF8
BFFFFD104FF8
BFF9FF804FF8
BFF2DFF24FF8
BFF25FFA4FF8
BFF20BFF9FF8
BFF202FFFFF8
BFF2008FFFF8
BFF2001EFFF8
BFF20006FFF8
BFF20000CFF8
ENDCHAR
STARTCHAR Ograve
ENCODING 210
SWIDTH 777 0
DWIDTH 16 0
BBX 15 20 0 -1
BITMAP
0000077000000000
00004FF700000000
00003CFF70000000
0000006E30000000
0000001320000000
00005CFFFE920000
001AFFFFFFFE5000
00BFFFCAAEFFF500
07FFE500019FFE10
0EFF40000009FF70
4FFA00000001FFC0
6FF600000000CFF0
7FF600000000CFF0
5FF900000001FFD0
1EFF30000008FF80
08FFD300008FFF20
01CFFFB89DFFF600
002CFFFFFFFF7000
00007DFFFFB40000
0000002431000000
ENDCHAR
STARTCHAR Oacute
ENCODING 211
SWIDTH 777 0
DWIDTH 16 0
BBX 15 20 0 -1
BITMAP
000000001A200000
00000001CFC10000
0000001DFF810000
00000009C3000000
0000001320000000
00005CFFFE920000
001AFFFFFFFE5000
00BFFFCAAEFFF500
07FFE500019FFE10
0EFF40000009FF70
4FFA00000001FFC0
6FF600000000CFF0
7FF600000000CFF0
5FF900000001FFD0
1EFF30000008FF80
08FFD300008FFF20
01CFFFB89DFFF600
002CFFFFFFFF7000
00007DFFFFB40000
0000002431000000
ENDCHAR
STARTCHAR Ocircumflex
ENCODING 212
SWIDTH 777 0
DWIDTH 16 0
BBX 15 20 0 -1
BITMAP
0000000A40000000
000001BFF5000000
00000AFCEF300000
000002A049000000
0000001220000000
00005CFFFE920000
001AFFFFFFFE5000
00BFFFCAAEFFF500
07FFE500019FFE10
0EFF40000009FF70
4FFA00000001FFC0
6FF600000000CFF0
7FF600000000CFF0
5FF900000001FFD0
1EFF30000008FF80
08FFD300008FFF20
01CFFFB89DFFF600
002CFFFFFFFF7000
00007DFFFFB40000
0000002431000000
ENDCHAR
STARTCHAR Otilde
ENCODING 213
SWIDTH 777 0
DWIDTH 16 0
BBX 15 19 0 -1
BITMAP
000008B709B00000
00005FFFBFE00000
00006FB9FFB00000
0000286276100000
00005CFFFE920000
001AFFFFFFFE5000
00BFFFCAAEFFF500
07FFE500019FFE10
0EFF40000009FF70
4FFA00000001FFC0
6FF600000000CFF0
7FF600000000CFF0
5FF900000001FFD0
1EFF30000008FF80
08FFD300008FFF20
01CFFFB89DFFF600
002CFFFFFFFF7000
00007DFFFFB40000
0000002431000000
ENDCHAR
STARTCHAR Odieresis
ENCODING 214
SWIDTH 777 0
DWIDTH 16 0
BBX 15 18 0 -1
BITMAP
00001DD16F700000
00002FF29FA00000
0000045236100000
00005CFFFE920000
001AFFFFFFFE5000
00BFFFCAAEFFF500
07FFE500019FFE10
0EFF40000009FF70
4FFA00000001FFC0
6FF600000000CFF0
7FF600000000CFF0
5FF900000001FFD0
1EFF30000008FF80
08FFD300008FFF20
01CFFFB89DFFF600
002CFFFFFFFF7000
00007DFFFFB40000
0000002431000000
ENDCHAR
STARTCHAR multiply
ENCODING 215
SWIDTH 479 0
DWIDTH 10 0
BBX 8 8 1 3
BITMAP
09400A50
9FE4AFF5
8FFFFFE2
08FFFE20
0AFFFE40
AFFEFFE4
5FD28FD2
05200720
ENDCHAR
STARTCHAR Oslash
ENCODING 216
SWIDTH 777 0
DWIDTH 16 0
BBX 15 16 0 -1
BITMAP
0000001210000000
00005CFFFE9CFC00
001AFFFFFFFFF300
00BFFFCAAEFFF500
07FFE5001EFFFE10
0EFF4000BFDAFF80
4FFA0007FF31FFC0
6FF6003FF700CFE0
6FF601DFB000CFF0
5FF90AFE2001FFD0
1EFF8FF40008FF80
08FFFF80008FFF20
01DFFFB89DFFF600
009FFFFFFFFF7000
04FFADFFFFB40000
0000002431000000
ENDCHAR
STARTCHAR Ugrave
ENCODING 217
SWIDTH 673 0
DWIDTH 13 0
BBX 12 19 1 0
BITMAP
000580000000
003EF9000000
002BFF900000
00005E500000
000000000000
DFE000007FF5
DFE000007FF5
DFE000007FF5
DFE000007FF5
DFE000007FF5
DFE000007FF5
DFE000007FF5
DFE000007FF5
DFE000007FF5
BFF30000BFF3
6FFD2008FFE0
1DFFFDEFFF60
02DFFFFFF800
0018DFEA4000
ENDCHAR
STARTCHAR Uacute
ENCODING 218
SWIDTH 673 0
DWIDTH 13 0
BBX 12 19 1 0
BITMAP
0000001B2000
000001CFC000
00001DFF8100
000009C30000
000000000000
DFE000007FF5
DFE000007FF5
DFE000007FF5
DFE000007FF5
DFE000007FF5
DFE000007FF5
DFE000007FF5
DFE000007FF5
DFE000007FF5
BFF30000BFF3
6FFD2008FFE0
1DFFFDEFFF60
02DFFFFFF800
0018DFEA4000
ENDCHAR
STARTCHAR Ucircumflex
ENCODING 219
SWIDTH 673 0
DWIDTH 13 0
BBX 12 19 1 0
BITMAP
00001A300000
0001BFE40000
000AFCFF3000
000390490000
000000000000
DFE000007FF5
DFE000007FF5
DFE000007FF5
DFE000007FF5
DFE000007FF5
DFE000007FF5
DFE000007FF5
DFE000007FF5
DFE000007FF5
BFF30000BFF3
6FFD2008FFE0
1DFFFDEFFF60
02DFFFFFF800
0018DFEA4000
ENDCHAR
STARTCHAR Udieresis
ENCODING 220
SWIDTH 673 0
DWIDTH 13 0
BBX 12 17 1 0
BITMAP
001ED16F7000
003FF29FA000
000440161000
DFE000007FF5
DFE000007FF5
DFE000007FF5
DFE000007FF5
DFE000007FF5
DFE000007FF5
DFE000007FF5
DFE000007FF5
DFE000007FF5
BFF30000BFF3
6FFD2008FFE0
1DFFFDEFFF60
02DFFFFFF800
0018DFEA4000
ENDCHAR
STARTCHAR Yacute
ENCODING 221
SWIDTH 620 0
DWIDTH 12 0
BBX 12 19 0 0
BITMAP
000000077000
0000008FF400
000008FFC300
000004E60000
000000000000
6FF600000FFC
6FF600000FFC
6FF600000FFC
6FF600000FFC
6FF700001FFC
3FFC00006FF9
0CFFA216EFF4
04FFFFFFFFA0
005EFFFFFA00
00029FFC4000
00003FF90000
00003FF90000
00003FF90000
00003FF90000
ENDCHAR
STARTCHAR Thorn
ENCODING 222
SWIDTH 637 0
DWIDTH 13 0
BBX 12 16 1 -1
BITMAP
699100000000
BFF200000000
BFFA99851000
BFFFFFFFD400
BFFFFFFFFF40
BFF4335BFFD0
BFF20000CFF4
BFF200006FF7
BFF200006FF7
BFF20000CFF4
BFF4335BFFD0
BFFFFFFFFF40
BFFFFFFFD400
BFFA99851000
BFF200000000
699100000000
ENDCHAR
STARTCHAR germandbls
ENCODING 223
SWIDTH 813 0
DWIDTH 16 0
BBX 17 16 0 0
BITMAP
000037999840000000
0008FFFFFFFA000000
007FFFFFFFFF700000
00EFE51113EFC00000
03FF800000CFD00000
49FF600169FFB00000
8FFF604EFFFF400000
8FFF61EFFFE5000000
26FF63FF9300000000
04FF63FFC777651000
04FF60CFFFFFFFD300
04FF602CFFFFFFFD00
04FF600023333BFF10
04FF605AAAAAAEFF00
04FF608FFFFFFFF800
04FF608FFFFFFD7000
ENDCHAR
STARTCHAR agrave
ENCODING 224
SWIDTH 607 0
DWIDTH 12 0
BBX 12 17 0 -1
BITMAP
000670000000
003FF8000000
002BFF800000
00006E400000
000000000000
0005ACC71041
00BFFFFFD7F2
09FFFDFFFFF2
2FFE3019FFF2
6FF60000DFF2
8FF300009FF2
7FF50000BFF2
4FFB0004FFF2
0DFFD8AFFFF2
03EFFFFFFCF2
003BFFFC40C2
000013200000
ENDCHAR
STARTCHAR aacute
ENCODING 225
SWIDTH 607 0
DWIDTH 12 0
BBX 12 17 0 -1
BITMAP
0000002B1000
000002DFB000
00002EFE7000
00000BB20000
000000000000
0005ACC71041
00BFFFFFD7F2
09FFFDFFFFF2
2FFE3019FFF2
6FF60000DFF2
8FF300009FF2
7FF50000BFF2
4FFB0004FFF2
0DFFD8AFFFF2
03EFFFFFFCF2
003BFFFC40C2
000013200000
ENDCHAR
STARTCHAR acircumflex
ENCODING 226
SWIDTH 607 0
DWIDTH 12 0
BBX 12 16 0 -1
BITMAP
000009400000
0001BFF50000
000AFCEF3000
0002A1390000
0005ACC71041
00BFFFFFD7F2
09FFFDFFFFF2
2FFE3019FFF2
6FF60000DFF2
8FF300009FF2
7FF50000BFF2
4FFB0004FFF2
0DFFD8AFFFF2
03EFFFFFFCF2
003BFFFC40C2
000013200000
ENDCHAR
STARTCHAR atilde
ENCODING 227
SWIDTH 607 0
DWIDTH 12 0
BBX 12 16 0 -1
BITMAP
0007B809B000
005FFFBFF000
006FB9FFB000
002850561000
0005ACC71041
00BFFFFFD7F2
09FFFDFFFFF2
2FFE3019FFF2
6FF60000DFF2
8FF300009FF2
7FF50000BFF2
4FFB0004FFF2
0DFFD8AFFFF2
03EFFFFFFCF2
003BFFFC40C2
000013200000
ENDCHAR
STARTCHAR adieresis
ENCODING 228
SWIDTH 607 0
DWIDTH 12 0
BBX 12 15 0 -1
BITMAP
001DE15F8000
002FF38FB000
000440161000
0005ACC71041
00BFFFFFD7F2
09FFFDFFFFF2
2FFE3019FFF2
6FF60000DFF2
8FF300009FF2
7FF50000BFF2
4FFB0004FFF2
0DFFD8AFFFF2
03EFFFFFFCF2
003BFFFC40C2
000013200000
ENDCHAR
STARTCHAR aring
ENCODING 229
SWIDTH 607 0
DWIDTH 12 0
BBX 12 17 0 -1
BITMAP
000001000000
00008FE30000
0001F6BA0000
0000EBE80000
00003A810000
0005ACC71041
00BFFFFFD7F2
09FFFDFFFFF2
2FFE3019FFF2
6FF60000DFF2
8FF300009FF2
7FF50000BFF2
4FFB0004FFF2
0DFFD8AFFFF2
03EFFFFFFCF2
003BFFFC40C2
000013200000
ENDCHAR
STARTCHAR ae
ENCODING 230
SWIDTH 976 0
DWIDTH 20 0
BBX 20 12 0 -1
BITMAP
0005ACC710415ACC8200
00BFFFFFD7FCFFFFFE50
09FFFDFFFFFFFFDEFFE1
2FFE3019FFFFE41CFF50
6FF60000DFFF709FF700
8FF300009FFF35FFA000
7FF50000BFFF7EFC0000
4FFB0004FFFFFFD13A00
0DFFD8AFFFFFFFA9EFB0
03EFFFFFFCFEFFFFFFA0
003BFFFC40C4AFFFD700
00001320000001320000
ENDCHAR
STARTCHAR ccedilla
ENCODING 231
SWIDTH 521 0
DWIDTH 10 0
BBX 10 16 0 -5
BITMAP
0004ACB810
009FFFFFE4
08FFFEEFFE
1FFE4009F5
6FF7000040
8FF3000000
8FF4000000
4FFB0003A0
0CFFD89EFA
02DFFFFFF9
001AFFFD60
00004F3000
00007FE200
00045BF500
0009FFE200
0001672000
ENDCHAR
STARTCHAR egrave
ENCODING 232
SWIDTH 524 0
DWIDTH 11 0
BBX 10 17 0 -1
BITMAP
0009500000
006FF60000
004DFF5000
00008E2000
0000000000
0005ACC820
01BFFFFFE5
09FFFDEFFE
2FFE31DFF4
6FF609FF70
8FF36FF900
7FF7EFB000
4FFFFD13A0
0CFFFA9EFA
02EFFFFFFA
002AFFFD60
0000132000
ENDCHAR
STARTCHAR eacute
ENCODING 233
SWIDTH 524 0
DWIDTH 11 0
BBX 10 17 0 -1
BITMAP
0000002B10
000003DFA0
00002EFE70
00000BA200
0000010000
0005ACC820
01BFFFFFE5
09FFFDEFFE
2FFE31DFF4
6FF609FF70
8FF36FF900
7FF7EFB000
4FFFFD13A0
0CFFFA9EFA
02EFFFFFFA
002AFFFD60
0000132000
ENDCHAR
STARTCHAR ecircumflex
ENCODING 234
SWIDTH 524 0
DWIDTH 11 0
BBX 10 17 0 -1
BITMAP
00003A1000
0004EFB100
002FFCFB00
0008509400
0000000000
0005ACC820
01BFFFFFE5
09FFFDEFFE
2FFE31DFF4
6FF609FF70
8FF36FF900
7FF7EFB000
4FFFFD13A0
0CFFFA9EFA
02EFFFFFFA
002AFFFD60
0000132000
ENDCHAR
STARTCHAR edieresis
ENCODING 235
SWIDTH 524 0
DWIDTH 11 0
BBX 10 15 0 -1
BITMAP
006F80CE20
009FB1FF40
0016103500
0005ACC820
01BFFFFFE5
09FFFDEFFE
2FFE31DFF4
6FF609FF70
8FF36FF900
7FF7EFB000
4FFFFD13A0
0CFFFA9EFA
02EFFFFFFA
002AFFFD60
0000132000
ENDCHAR
STARTCHAR igrave
ENCODING 236
SWIDTH 235 0
DWIDTH 5 0
BBX 5 15 -1 0
BITMAP
0A3000
9FE300
6EFE30
01AC00
007750
00FFB0
00FFB0
00FFB0
00FFB0
00FFB0
00FFB0
00FFB0
00FFB0
00FFB0
00FFB0
ENDCHAR
STARTCHAR iacute
ENCODING 237
SWIDTH 235 0
DWIDTH 5 0
BBX 5 15 1 0
BITMAP
005800
06FF50
6FFC30
3E7000
775000
FFB000
FFB000
FFB000
FFB000
FFB000
FFB000
FFB000
FFB000
FFB000
FFB000
ENDCHAR
STARTCHAR icircumflex
ENCODING 238
SWIDTH 235 0
DWIDTH 5 0
BBX 6 15 -1 0
BITMAP
003A10
03EFC1
1EFCFC
076085
007750
00FFB0
00FFB0
00FFB0
00FFB0
00FFB0
00FFB0
00FFB0
00FFB0
00FFB0
00FFB0
ENDCHAR
STARTCHAR idieresis
ENCODING 239
SWIDTH 235 0
DWIDTH 5 0
BBX 7 14 -1 0
BITMAP
5F90BE20
8FB0EF40
16203500
00775000
00FFB000
00FFB000
00FFB000
00FFB000
00FFB000
00FFB000
00FFB000
00FFB000
00FFB000
00FFB000
ENDCHAR
STARTCHAR eth
ENCODING 240
SWIDTH 581 0
DWIDTH 12 0
BBX 12 17 0 -1
BITMAP
000033310000
00008FFB0000
006FFFFFFFC0
006FFFFFFFC0
001444AFF830
00049BCFFC00
009FFFFFFF20
08FFFDEFFF80
2FFE3008FFC0
6FF60000DFF0
8FF300009FF2
7FF40000BFF1
4FFC1004FFC0
0CFFD8AFFF50
02EFFFFFF900
002AFFFD6000
000013200000
ENDCHAR
STARTCHAR ntilde
ENCODING 241
SWIDTH 562 0
DWIDTH 11 0
BBX 10 15 1 0
BITMAP
008B70AA00
06FFFBFD00
07FAAFF900
0384056000
6027A94000
FAFFFFFA00
FFFFFFFF90
FFF714EFF1
FFC0006FF5
FFA0004FF5
FFA0004FF5
FFA0004FF5
FFA0004FF5
FFA0004FF5
FFA0004FF5
ENDCHAR
STARTCHAR ograve
ENCODING 242
SWIDTH 579 0
DWIDTH 12 0
BBX 12 17 0 -1
BITMAP
000670000000
004FF8000000
003CFF800000
00006E400000
000000000000
0005ACC82000
00AFFFFFF500
09FFFDEFFF30
2FFE3008FFB0
6FF60000DFF0
8FF300009FF1
7FF40000BFF1
4FFC1004FFC0
0CFFD8AFFF50
02EFFFFFF900
002AFFFD6000
000013200000
ENDCHAR
STARTCHAR oacute
ENCODING 243
SWIDTH 579 0
DWIDTH 12 0
BBX 12 17 0 -1
BITMAP
0000002B1000
000002DFA000
00002EFE7000
00000BB20000
000000000000
0005ACC82000
00AFFFFFF500
09FFFDEFFF30
2FFE3008FFB0
6FF60000DFF0
8FF300009FF1
7FF40000BFF1
4FFC1004FFC0
0CFFD8AFFF50
02EFFFFFF900
002AFFFD6000
000013200000
ENDCHAR
STARTCHAR ocircumflex
ENCODING 244
SWIDTH 579 0
DWIDTH 12 0
BBX 12 16 0 -1
BITMAP
00000A400000
0001BFF50000
000AFCEF3000
0002A0490000
0005ACC82000
00AFFFFFF500
09FFFDEFFF30
2FFE3008FFB0
6FF60000DFF0
8FF300009FF1
7FF40000BFF1
4FFC1004FFC0
0CFFD8AFFF50
02EFFFFFF900
002AFFFD6000
000013200000
ENDCHAR
STARTCHAR otilde
ENCODING 245
SWIDTH 579 0
DWIDTH 12 0
BBX 12 16 0 -1
BITMAP
0008B709B000
005FFFBFE000
006FB9FFB000
002850561000
0005ACC82000
00AFFFFFF500
09FFFDEFFF30
2FFE3008FFB0
6FF60000DFF0
8FF300009FF1
7FF40000BFF1
4FFC1004FFC0
0CFFD8AFFF50
02EFFFFFF900
002AFFFD6000
000013200000
ENDCHAR
STARTCHAR odieresis
ENCODING 246
SWIDTH 579 0
DWIDTH 12 0
BBX 12 15 0 -1
BITMAP
001DD15F7000
002FF38FA000
000440161000
0005ACC82000
00AFFFFFF500
09FFFDEFFF30
2FFE3008FFB0
6FF60000DFF0
8FF300009FF1
7FF40000BFF1
4FFC1004FFC0
0CFFD8AFFF50
02EFFFFFF900
002AFFFD6000
000013200000
ENDCHAR
STARTCHAR divide
ENCODING 247
SWIDTH 494 0
DWIDTH 10 0
BBX 10 10 0 2
BITMAP
0002CC1000
0006FF5000
0001BB1000
1666666660
2FFFFFFFF1
2FFFFFFFF1
1444554440
0003EE2000
0006FF5000
0001880000
ENDCHAR
STARTCHAR oslash
ENCODING 248
SWIDTH 579 0
DWIDTH 12 0
BBX 12 12 0 -1
BITMAP
0005ACC87980
00AFFFFFFF50
09FFFDEFFF30
2FFE30CFFFB0
6FF609FEDFF0
8FF35FF59FF1
7FF6EF90BFF1
4FFFFC04FFC0
0CFFFAAFFF50
07FFFFFFF900
2EFDFFFD6000
000012200000
ENDCHAR
STARTCHAR ugrave
ENCODING 249
SWIDTH 562 0
DWIDTH 11 0
BBX 11 16 0 -1
BITMAP
000940000000
007FF5000000
005DFF500000
00018D100000
177400037710
2FF80007FF30
2FF80007FF30
2FF80007FF30
2FF80007FF30
2FF80007FF30
2FF90007FF30
0FFD000CFF30
0AFFC8CFFF30
02EFFFFFEF30
002BFFF91C30
000013100000
ENDCHAR
STARTCHAR uacute
ENCODING 250
SWIDTH 562 0
DWIDTH 11 0
BBX 11 16 0 -1
BITMAP
0000003A0000
000004EF8000
00003FFE6000
00001D910000
177400037710
2FF80007FF30
2FF80007FF30
2FF80007FF30
2FF80007FF30
2FF80007FF30
2FF90007FF30
0FFD000CFF30
0AFFC8CFFF30
02EFFFFFEF30
002BFFF91C30
000013100000
ENDCHAR
STARTCHAR ucircumflex
ENCODING 251
SWIDTH 562 0
DWIDTH 11 0
BBX 11 16 0 -1
BITMAP
00001A200000
0002DFD20000
000DFCFE1000
000580670000
177400037710
2FF80007FF30
2FF80007FF30
2FF80007FF30
2FF80007FF30
2FF80007FF30
2FF90007FF30
0FFD000CFF30
0AFFC8CFFF30
02EFFFFFEF30
002BFFF91C30
000013100000
ENDCHAR
STARTCHAR udieresis
ENCODING 252
SWIDTH 562 0
DWIDTH 11 0
BBX 11 15 0 -1
BITMAP
003EB08F4000
005FE0CF7000
000530250000
177400037710
2FF80007FF30
2FF80007FF30
2FF80007FF30
2FF80007FF30
2FF80007FF30
2FF90007FF30
0FFD000CFF30
0AFFC8CFFF30
02EFFFFFEF30
002BFFF91C30
000013100000
ENDCHAR
STARTCHAR yacute
ENCODING 253
SWIDTH 562 0
DWIDTH 11 0
BBX 11 19 0 -4
BITMAP
0000003A0000
000004EF8000
00004FFE5000
00001D910000
177400037720
2FF80007FF40
2FF80007FF40
2FF80007FF40
2FF80007FF40
2FF80007FF40
2FF90007FF40
0FFC000CFF40
0AFFC8CFFF40
02EFFFFFFF40
002BFFEEFF20
0000134FFD00
0005ACFFF600
0007FFFF8000
0007FEB50000
ENDCHAR
STARTCHAR thorn
ENCODING 254
SWIDTH 608 0
DWIDTH 12 0
BBX 11 19 1 -4
BITMAP
CCA000000000
FFD000000000
FFD000000000
FFD000000000
FFD5ACB60000
FFFFFFFFC100
FFFFFDFFFC00
FFFA102CFF40
FFE10003FF90
FFC00000FFA0
FFD00002FFA0
FFF6000AFF60
FFFFA8CFFE10
FFFFFFFFF500
FFCBFFFC4000
FFB013100000
FFB000000000
FFB000000000
FFA000000000
ENDCHAR
STARTCHAR ydieresis
ENCODING 255
SWIDTH 562 0
DWIDTH 11 0
BBX 11 18 0 -4
BITMAP
003EB08F4000
005FE0CF7000
000530250000
177400037720
2FF80007FF40
2FF80007FF40
2FF80007FF40
2FF80007FF40
2FF80007FF40
2FF90007FF40
0FFC000CFF40
0AFFC8CFFF40
02EFFFFFFF40
002BFFEEFF20
0000134FFD00
0005ACFFF600
0007FFFF8000
0007FEB50000
ENDCHAR
STARTCHAR Amacron
ENCODING 256
SWIDTH 673 0
DWIDTH 13 0
BBX 12 17 1 0
BITMAP
0008CCCC2000
000BFFFF3000
000344441000
0018DFEA4000
02DFFFFFF800
1DFFFDEFFF60
6FFD2008FFD0
BFF30000BFF3
DFE000007FF5
DFE000007FF5
DFE000007FF5
DFF99999CFF5
DFFFFFFFFFF5
DFFFFFFFFFF5
DFE333338FF5
DFE000007FF5
DFE000007FF5
ENDCHAR
STARTCHAR amacron
ENCODING 257
SWIDTH 607 0
DWIDTH 12 0
BBX 12 15 0 -1
BITMAP
0009CCCC2000
000CFFFF2000
000444441000
0005ACC71041
00BFFFFFD7F2
09FFFDFFFFF2
2FFE3019FFF2
6FF60000DFF2
8FF300009FF2
7FF50000BFF2
4FFB0004FFF2
0DFFD8AFFFF2
03EFFFFFFCF2
003BFFFC40C2
000013200000
ENDCHAR
STARTCHAR Abreve
ENCODING 258
SWIDTH 673 0
DWIDTH 13 0
BBX 12 18 1 0
BITMAP
000482860000
0008FAFB0000
0002DFF50000
000003100000
0018DFEA4000
02DFFFFFF800
1DFFFDEFFF60
6FFD2008FFD0
BFF30000BFF3
DFE000007FF5
DFE000007FF5
DFE000007FF5
DFF99999CFF5
DFFFFFFFFFF5
DFFFFFFFFFF5
DFE333338FF5
DFE000007FF5
DFE000007FF5
ENDCHAR
STARTCHAR abreve
ENCODING 259
SWIDTH 607 0
DWIDTH 12 0
BBX 12 16 0 -1
BITMAP
000581860000
0009FAFB0000
0002EFF50000
000013100000
0005ACC71041
00BFFFFFD7F2
09FFFDFFFFF2
2FFE3019FFF2
6FF60000DFF2
8FF300009FF2
7FF50000BFF2
4FFB0004FFF2
0DFFD8AFFFF2
03EFFFFFFCF2
003BFFFC40C2
000013200000
ENDCHAR
STARTCHAR Aogonek
ENCODING 260
SWIDTH 673 0
DWIDTH 13 0
BBX 12 18 1 -4
BITMAP
0018DFEA4000
02DFFFFFF800
1DFFFDEFFF60
6FFD2008FFD0
BFF30000BFF3
DFE000007FF5
DFE000007FF5
DFE000007FF5
DFF99999CFF5
DFFFFFFFFFF5
DFFFFFFFFFF5
DFE333338FF5
DFE000007FF5
DFE000007FF5
000000008E20
00000001FD72
00000000DFFC
000000002771
ENDCHAR
STARTCHAR aogonek
ENCODING 261
SWIDTH 607 0
DWIDTH 12 0
BBX 13 15 0 -4
BITMAP
0005ACC7104100
00BFFFFFD7F200
09FFFDFFFFF200
2FFE3019FFF200
6FF60000DFF200
8FF300009FF200
7FF50000BFF200
4FFB0004FFF200
0DFFD8AFFFF200
03EFFFFFFCF200
003BFFFC42F200
000013201DB000
000000006F9800
000000004FFF70
00000000048500
ENDCHAR
STARTCHAR Cacute
ENCODING 262
SWIDTH 640 0
DWIDTH 13 0
BBX 13 20 0 -1
BITMAP
00000000580000
00000006FF5000
0000006FFD4000
0000002E700000
00000013200000
00005CFFFEA300
001BFFFFFFFF40
00BFFFCAAEFD00
07FFE500019400
0EFF4000000000
4FFA0000000000
6FF60000000000
7FF60000000000
5FF90000000000
1EFF3000000000
08FFD300007300
01CFFFB89DFC00
002CFFFFFFFF40
00007DFFFFB400
00000024410000
ENDCHAR
STARTCHAR cacute
ENCODING 263
SWIDTH 521 0
DWIDTH 10 0
BBX 10 17 0 -1
BITMAP
0000004A00
000004EF70
00004FFE50
00001D9100
0000000000
0004ACB810
009FFFFFE4
08FFFEEFFE
1FFE4009F5
6FF7000040
8FF3000000
8FF4000000
4FFB0003A0
0CFFD89EFA
03EFFFFFF9
002AFFFD60
0000132000
ENDCHAR
STARTCHAR Ccircumflex
ENCODING 264
SWIDTH 640 0
DWIDTH 13 0
BBX 13 20 0 -1
BITMAP
0000003A100000
000003EFC10000
00001EFCFC0000
00000760850000
00000013200000
00005CFFFEA300
001BFFFFFFFF40
00BFFFCAAEFD00
07FFE500019400
0EFF4000000000
4FFA0000000000
6FF60000000000
7FF60000000000
5FF90000000000
1EFF3000000000
08FFD300007300
01CFFFB89DFC00
002CFFFFFFFF40
00007DFFFFB400
00000024410000
ENDCHAR
STARTCHAR ccircumflex
ENCODING 265
SWIDTH 521 0
DWIDTH 10 0
BBX 10 16 0 -1
BITMAP
00001A3000
0001CFE400
000BFCFF20
0003904900
0004ACB810
009FFFFFE4
08FFFEEFFE
1FFE4009F5
6FF7000040
8FF3000000
8FF4000000
4FFB0003A0
0CFFD89EFA
03EFFFFFF9
002AFFFD60
0000132000
ENDCHAR
STARTCHAR Cdotaccent
ENCODING 266
SWIDTH 640 0
DWIDTH 13 0
BBX 13 19 0 -1
BITMAP
00000003000000
0000006FB00000
0000007FB00000
00000016300000
00005CFFFEA300
001BFFFFFFFF40
00BFFFCAAEFD00
07FFE500019400
0EFF4000000000
4FFA0000000000
6FF60000000000
7FF60000000000
5FF90000000000
1EFF3000000000
08FFD300007300
01CFFFB89DFC00
002CFFFFFFFF40
00007DFFFFB400
00000024410000
ENDCHAR
STARTCHAR cdotaccent
ENCODING 267
SWIDTH 521 0
DWIDTH 10 0
BBX 10 16 0 -1
BITMAP
0000021000
00004FD000
00004FD000
0000031000
0004ACB810
009FFFFFE4
08FFFEEFFE
1FFE4009F5
6FF7000040
8FF3000000
8FF4000000
4FFB0003A0
0CFFD89EFA
03EFFFFFF9
002AFFFD60
0000132000
ENDCHAR
STARTCHAR Ccaron
ENCODING 268
SWIDTH 640 0
DWIDTH 13 0
BBX 13 20 0 -1
BITMAP
000006B1790000
00000AFEFE2000
000000AFD20000
00000007200000
00000013200000
00005CFFFEA300
001BFFFFFFFF40
00BFFFCAAEFD00
07FFE500019400
0EFF4000000000
4FFA0000000000
6FF60000000000
7FF60000000000
5FF90000000000
1EFF3000000000
08FFD300007300
01CFFFB89DFC00
002CFFFFFFFF40
00007DFFFFB400
00000024410000
ENDCHAR
STARTCHAR ccaron
ENCODING 269
SWIDTH 521 0
DWIDTH 10 0
BBX 10 16 0 -1
BITMAP
0004C16B00
0009FEFE30
00008FE300
0000063000
0004ACB810
009FFFFFE4
08FFFEEFFE
1FFE4009F5
6FF7000040
8FF3000000
8FF4000000
4FFB0003A0
0CFFD89EFA
03EFFFFFF9
002AFFFD60
0000132000
ENDCHAR
STARTCHAR Dcaron
ENCODING 270
SWIDTH 653 0
DWIDTH 13 0
BBX 12 18 1 0
BITMAP
0008A0980000
000CFEFD1000
0001BFC10000
000008100000
BFFFFDA40000
BFFFFFFFA100
BFFCCEFFFC00
BFF2006EFF80
BFF20003FFE1
BFF200009FF5
BFF200005FF7
BFF200005FF7
BFF200009FF5
BFF20003FFE1
BFF2005EFF80
BFFCCEFFFC00
BFFFFFFFA100
BFFFFDA40000
ENDCHAR
STARTCHAR dcaron
ENCODING 271
SWIDTH 740 0
DWIDTH 15 0
BBX 15 16 0 -1
BITMAP
0000000059910000
000000008FF28F60
000000008FF2CFC0
000000008FF23E90
0005ACC79FF21E30
00AFFFFFEFF20000
09FFFDFFFFF20000
2FFE3019FFF20000
6FF60000DFF20000
8FF300009FF20000
7FF50000BFF20000
4FFC1004FFF20000
0CFFD8AFFFF20000
02EFFFFFFCF20000
002AFFFC41D20000
0000132000000000
ENDCHAR
STARTCHAR Dcroat
ENCODING 272
SWIDTH 672 0
DWIDTH 13 0
BBX 13 14 0 0
BITMAP
05FFFFEC710000
05FFFFFFFD3000
05FFECDFFFF300
05FF8003CFFD00
05FF80000CFF60
69FFB61003FFB0
EFFFFF2000EFD0
EFFFFF2000EFD0
37FF940003FFB0
05FF80000CFF60
05FF8002BFFD00
05FFECDFFFF300
05FFFFFFFD3000
05FFFFEC710000
ENDCHAR
STARTCHAR dcroat
ENCODING 273
SWIDTH 606 0
DWIDTH 12 0
BBX 13 16 0 -1
BITMAP
00000000699200
0000000AFFFF20
0000000AFFFF20
00000006DFFA10
0005ACC79FF200
00AFFFFFEFF200
09FFFDFFFFF200
2FFE3019FFF200
6FF60000DFF200
8FF300009FF200
7FF50000BFF200
4FFC1004FFF200
0CFFD8AFFFF200
02EFFFFFFCF200
002AFFFC41D200
00001320000000
ENDCHAR
STARTCHAR Emacron
ENCODING 274
SWIDTH 578 0
DWIDTH 12 0
BBX 10 17 1 0
BITMAP
001CCCCA00
002FFFFC00
0004444400
BFFFFFFFFE
BFFFFFFFFE
BFFCCCCCCB
BFF2000000
BFF2000000
BFF7666400
BFFFFFFB00
BFFFFFFB00
BFF7666400
BFF2000000
BFF2000000
BFFCCCCCCB
BFFFFFFFFE
BFFFFFFFFE
ENDCHAR
STARTCHAR emacron
ENCODING 275
SWIDTH 524 0
DWIDTH 11 0
BBX 10 15 0 -1
BITMAP
0009CCCC10
000CFFFF20
0004444410
0005ACC820
01BFFFFFE5
09FFFDEFFE
2FFE31DFF4
6FF609FF70
8FF36FF900
7FF7EFB000
4FFFFD13A0
0CFFFA9EFA
02EFFFFFFA
002AFFFD60
0000132000
ENDCHAR
STARTCHAR Ebreve
ENCODING 276
SWIDTH 578 0
DWIDTH 12 0
BBX 10 18 1 0
BITMAP
0018648100
001FDCF300
0008FFC000
0000230000
BFFFFFFFFE
BFFFFFFFFE
BFFCCCCCCB
BFF2000000
BFF2000000
BFF7666400
BFFFFFFB00
BFFFFFFB00
BFF7666400
BFF2000000
BFF2000000
BFFCCCCCCB
BFFFFFFFFE
BFFFFFFFFE
ENDCHAR
STARTCHAR ebreve
ENCODING 277
SWIDTH 524 0
DWIDTH 11 0
BBX 10 16 0 -1
BITMAP
0005818500
000AFAFA00
0003EFE400
0000131000
0005ACC820
01BFFFFFE5
09FFFDEFFE
2FFE31DFF4
6FF609FF70
8FF36FF900
7FF7EFB000
4FFFFD13A0
0CFFFA9EFA
02EFFFFFFA
002AFFFD60
0000132000
ENDCHAR
STARTCHAR Edotaccent
ENCODING 278
SWIDTH 578 0
DWIDTH 12 0
BBX 10 18 1 0
BITMAP
0000120000
0000DF4000
0000EF4000
0000130000
BFFFFFFFFE
BFFFFFFFFE
BFFCCCCCCB
BFF2000000
BFF2000000
BFF7666400
BFFFFFFB00
BFFFFFFB00
BFF7666400
BFF2000000
BFF2000000
BFFCCCCCCB
BFFFFFFFFE
BFFFFFFFFE
ENDCHAR
STARTCHAR edotaccent
ENCODING 279
SWIDTH 524 0
DWIDTH 11 0
BBX 10 16 0 -1
BITMAP
0000031000
00006FB000
00007FB000
0000031000
0005ACC820
01BFFFFFE5
09FFFDEFFE
2FFE31DFF4
6FF609FF70
8FF36FF900
7FF7EFB000
4FFFFD13A0
0CFFFA9EFA
02EFFFFFFA
002AFFFD60
0000132000
ENDCHAR
STARTCHAR Eogonek
ENCODING 280
SWIDTH 578 0
DWIDTH 12 0
BBX 10 18 1 -4
BITMAP
BFFFFFFFFE
BFFFFFFFFE
BFFCCCCCCB
BFF2000000
BFF2000000
BFF7666400
BFFFFFFB00
BFFFFFFB00
BFF7666400
BFF2000000
BFF2000000
BFFCCCCCCB
BFFFFFFFFE
BFFFFFFFFE
000000BC00
000004FA81
000002FFF9
0000003860
ENDCHAR
STARTCHAR eogonek
ENCODING 281
SWIDTH 524 0
DWIDTH 11 0
BBX 10 15 0 -4
BITMAP
0005ACC820
01BFFFFFE5
09FFFDEFFE
2FFE31DFF4
6FF609FF70
8FF36FF900
7FF7EFB000
4FFFFD13A0
0CFFFA9EFA
02EFFFFFFA
002AFFFF70
000015F800
000009F770
000006FFF4
0000005840
ENDCHAR
STARTCHAR Ecaron
ENCODING 282
SWIDTH 578 0
DWIDTH 12 0
BBX 10 18 1 0
BITMAP
001C52C300
003EFEF800
0003EF8000
0000270000
BFFFFFFFFE
BFFFFFFFFE
BFFCCCCCCB
BFF2000000
BFF2000000
BFF7666400
BFFFFFFB00
BFFFFFFB00
BFF7666400
BFF2000000
BFF2000000
BFFCCCCCCB
BFFFFFFFFE
BFFFFFFFFE
ENDCHAR
STARTCHAR ecaron
ENCODING 283
SWIDTH 524 0
DWIDTH 11 0
BBX 10 16 0 -1
BITMAP
0006B17900
000AFEFE20
0000AFD200
0000072000
0005ACC820
01BFFFFFE5
09FFFDEFFE
2FFE31DFF4
6FF609FF70
8FF36FF900
7FF7EFB000
4FFFFD13A0
0CFFFA9EFA
02EFFFFFFA
002AFFFD60
0000132000
ENDCHAR
STARTCHAR Gcircumflex
ENCODING 284
SWIDTH 665 0
DWIDTH 13 0
BBX 13 20 0 -1
BITMAP
0000002A100000
000003EFD20000
00001EFBFD0000
00000670760000
00000012100000
00005BFFFE9200
001AFFFFFFFE30
00BFFFDABEFD00
07FFE400019400
0EFF4000000000
4FFA0000000000
6FF60000000000
7FF6000004EE60
5FF9000004FF70
1EFF300004FF70
08FFD30004FF70
01CFFFA89DFF70
002CFFFFFFFF50
00007DFFFFB400
00000024410000
ENDCHAR
STARTCHAR gcircumflex
ENCODING 285
SWIDTH 607 0
DWIDTH 12 0
BBX 12 19 0 -4
BITMAP
00001A300000
0001BFE40000
000AFCFF3000
000390490000
0005ACC71041
00AFFFFFD7F2
09FFFDFFFFF2
2FFE3019FFF2
6FF60000DFF2
8FF300009FF2
7FF50000BFF2
4FFC0004FFF2
0DFFD8AFFFF2
03EFFFFFFFF2
002BFFFDEFF1
00001324FFC0
00005ACFFF40
00008FFFF700
00008FEB4000
ENDCHAR
STARTCHAR Gbreve
ENCODING 286
SWIDTH 665 0
DWIDTH 13 0
BBX 13 19 0 -1
BITMAP
00000581850000
000009FAFA0000
000003EFF40000
00000015200000
00005BFFFE9200
001AFFFFFFFE30
00BFFFDABEFD00
07FFE400019400
0EFF4000000000
4FFA0000000000
6FF60000000000
7FF6000004EE60
5FF9000004FF70
1EFF300004FF70
08FFD30004FF70
01CFFFA89DFF70
002CFFFFFFFF50
00007DFFFFB400
00000024410000
ENDCHAR
STARTCHAR gbreve
ENCODING 287
SWIDTH 607 0
DWIDTH 12 0
BBX 12 19 0 -4
BITMAP
000482770000
0006FAED0000
0001DFF70000
000003200000
0005ACC71041
00AFFFFFD7F2
09FFFDFFFFF2
2FFE3019FFF2
6FF60000DFF2
8FF300009FF2
7FF50000BFF2
4FFC0004FFF2
0DFFD8AFFFF2
03EFFFFFFFF2
002BFFFDEFF1
00001324FFC0
00005ACFFF40
00008FFFF700
00008FEB4000
ENDCHAR
STARTCHAR Gdotaccent
ENCODING 288
SWIDTH 665 0
DWIDTH 13 0
BBX 13 19 0 -1
BITMAP
00000003000000
0000009F800000
000000AF800000
00000015200000
00005BFFFE9200
001AFFFFFFFE30
00BFFFDABEFD00
07FFE400019400
0EFF4000000000
4FFA0000000000
6FF60000000000
7FF6000004EE60
5FF9000004FF70
1EFF300004FF70
08FFD30004FF70
01CFFFA89DFF70
002CFFFFFFFF50
00007DFFFFB400
00000024410000
ENDCHAR
STARTCHAR gdotaccent
ENCODING 289
SWIDTH 607 0
DWIDTH 12 0
BBX 12 19 0 -4
BITMAP
000003100000
00006FB00000
00006FC00000
000003100000
0005ACC71041
00AFFFFFD7F2
09FFFDFFFFF2
2FFE3019FFF2
6FF60000DFF2
8FF300009FF2
7FF50000BFF2
4FFC0004FFF2
0DFFD8AFFFF2
03EFFFFFFFF2
002BFFFDEFF1
00001324FFC0
00005ACFFF40
00008FFFF700
00008FEB4000
ENDCHAR
STARTCHAR Gcommaaccent
ENCODING 290
SWIDTH 665 0
DWIDTH 13 0
BBX 13 20 0 -5
BITMAP
00000012100000
00005BFFFE9200
001AFFFFFFFE30
00BFFFDABEFD00
07FFE400019400
0EFF4000000000
4FFA0000000000
6FF60000000000
7FF6000004EE60
5FF9000004FF70
1EFF300004FF70
08FFD30004FF70
01CFFFA89DFF70
002CFFFFFFFF50
00007DFFFFB400
00000024410000
0000008F600000
000000DFB00000
0000004E900000
0000001E200000
ENDCHAR
STARTCHAR gcommaaccent
ENCODING 291
SWIDTH 607 0
DWIDTH 12 0
BBX 12 20 0 -4
BITMAP
000009200000
00006F200000
00009FC00000
00008FD00000
000005100000
0005ACC71041
00AFFFFFD7F2
09FFFDFFFFF2
2FFE3019FFF2
6FF60000DFF2
8FF300009FF2
7FF50000BFF2
4FFC0004FFF2
0DFFD8AFFFF2
03EFFFFFFFF2
002BFFFDEFF1
00001324FFC0
00005ACFFF40
00008FFFF700
00008FEB4000
ENDCHAR
STARTCHAR Hcircumflex
ENCODING 292
SWIDTH 689 0
DWIDTH 14 0
BBX 12 18 1 0
BITMAP
000008500000
0000AFF60000
0008FDEF5000
0001A12A0000
BFF200004FF8
BFF200004FF8
BFF200004FF8
BFF200004FF8
BFF200004FF8
BFF766669FF8
BFFFFFFFFFF8
BFFFFFFFFFF8
BFF766669FF8
BFF200004FF8
BFF200004FF8
BFF200004FF8
BFF200004FF8
BFF200004FF8
ENDCHAR
STARTCHAR hcircumflex
ENCODING 293
SWIDTH 562 0
DWIDTH 11 0
BBX 10 15 1 0
BITMAP
9960094000
FFA0AFF500
FFA9FCEF40
FFA2A13A00
FFB6994000
FFFFFFFA10
FFFFFFFF90
FFF714EFF1
FFC0006FF5
FFA0005FF5
FFA0005FF5
FFA0005FF5
FFA0005FF5
FFA0005FF5
FFA0005FF5
ENDCHAR
STARTCHAR Hbar
ENCODING 294
SWIDTH 689 0
DWIDTH 14 0
BBX 14 14 0 0
BITMAP
0BFF200004FF80
3CFF544447FFA2
BFFFFFFFFFFFF8
BFFFFFFFFFFFF8
4CFF766668FFA3
0BFF766669FF80
0BFFFFFFFFFF80
0BFFFFFFFFFF80
0BFF766669FF80
0BFF200004FF80
0BFF200004FF80
0BFF200004FF80
0BFF200004FF80
0BFF200004FF80
ENDCHAR
STARTCHAR hbar
ENCODING 295
SWIDTH 562 0
DWIDTH 11 0
BBX 11 15 0 0
BITMAP
099600000000
FFFF90000000
FFFF90000000
7FFC40000000
0FFB69940000
0FFFFFFFA100
0FFFFFFFF900
0FFF714EFF10
0FFC0006FF50
0FFA0005FF50
0FFA0005FF50
0FFA0005FF50
0FFA0005FF50
0FFA0005FF50
0FFA0005FF50
ENDCHAR
STARTCHAR Itilde
ENCODING 296
SWIDTH 270 0
DWIDTH 5 0
BBX 7 18 -1 0
BITMAP
08B70AA0
6FFFBFD0
7FAAFF90
28405600
00BFF200
00BFF200
00BFF200
00BFF200
00BFF200
00BFF200
00BFF200
00BFF200
00BFF200
00BFF200
00BFF200
00BFF200
00BFF200
00BFF200
ENDCHAR
STARTCHAR itilde
ENCODING 297
SWIDTH 235 0
DWIDTH 5 0
BBX 7 15 -1 0
BITMAP
2AB43B60
BFFEBF80
CF7DFF40
58216400
00775000
00FFB000
00FFB000
00FFB000
00FFB000
00FFB000
00FFB000
00FFB000
00FFB000
00FFB000
00FFB000
ENDCHAR
STARTCHAR Imacron
ENCODING 298
SWIDTH 270 0
DWIDTH 5 0
BBX 6 17 0 0
BITMAP
9CCCC2
CFFFF2
344441
0BFF20
0BFF20
0BFF20
0BFF20
0BFF20
0BFF20
0BFF20
0BFF20
0BFF20
0BFF20
0BFF20
0BFF20
0BFF20
0BFF20
ENDCHAR
STARTCHAR imacron
ENCODING 299
SWIDTH 235 0
DWIDTH 5 0
BBX 6 14 -1 0
BITMAP
1CCCCA
1FFFFD
044444
007750
00FFB0
00FFB0
00FFB0
00FFB0
00FFB0
00FFB0
00FFB0
00FFB0
00FFB0
00FFB0
ENDCHAR
STARTCHAR Ibreve
ENCODING 300
SWIDTH 270 0
DWIDTH 5 0
BBX 5 18 0 0
BITMAP
383770
6FBED0
1CFF70
003200
0BFF20
0BFF20
0BFF20
0BFF20
0BFF20
0BFF20
0BFF20
0BFF20
0BFF20
0BFF20
0BFF20
0BFF20
0BFF20
0BFF20
ENDCHAR
STARTCHAR ibreve
ENCODING 301
SWIDTH 235 0
DWIDTH 5 0
BBX 5 14 0 0
BITMAP
781840
CFAF80
5EFE20
08A600
0FFB00
0FFB00
0FFB00
0FFB00
0FFB00
0FFB00
0FFB00
0FFB00
0FFB00
0FFB00
ENDCHAR
STARTCHAR Iogonek
ENCODING 302
SWIDTH 270 0
DWIDTH 5 0
BBX 5 18 0 -4
BITMAP
0BFF20
0BFF20
0BFF20
0BFF20
0BFF20
0BFF20
0BFF20
0BFF20
0BFF20
0BFF20
0BFF20
0BFF20
0BFF20
0BFF20
0BD000
4FA810
2FFF90
038600
ENDCHAR
STARTCHAR iogonek
ENCODING 303
SWIDTH 235 0
DWIDTH 5 0
BBX 5 19 0 -4
BITMAP
1CF900
5FFF10
3FFD00
036200
077500
0FFB00
0FFB00
0FFB00
0FFB00
0FFB00
0FFB00
0FFB00
0FFB00
0FFB00
0FFB00
2DA000
8F8700
5FFF50
058400
ENDCHAR
STARTCHAR Idotaccent
ENCODING 304
SWIDTH 270 0
DWIDTH 5 0
BBX 4 18 1 0
BITMAP
0310
6FB0
6FC0
0310
BFF2
BFF2
BFF2
BFF2
BFF2
BFF2
BFF2
BFF2
BFF2
BFF2
BFF2
BFF2
BFF2
BFF2
ENDCHAR
STARTCHAR dotlessi
ENCODING 305
SWIDTH 235 0
DWIDTH 5 0
BBX 3 11 1 0
BITMAP
7750
FFB0
FFB0
FFB0
FFB0
FFB0
FFB0
FFB0
FFB0
FFB0
FFB0
ENDCHAR
STARTCHAR IJ
ENCODING 306
SWIDTH 687 0
DWIDTH 14 0
BBX 12 14 1 0
BITMAP
BFF200003FF9
BFF200003FF9
BFF200003FF9
BFF200003FF9
BFF200003FF9
BFF200003FF9
BFF200003FF9
BFF200003FF9
BFF200003FF9
BFF200007FF7
BFF21004EFF3
BFF26DDFFFA0
BFF26FFFFB10
BFF25EEC6000
ENDCHAR
STARTCHAR ij
ENCODING 307
SWIDTH 474 0
DWIDTH 9 0
BBX 9 19 0 -4
BITMAP
1CF903DF60
5FFF19FFD0
3FFD06FFA0
0362004600
0775027730
0FFB04FF70
0FFB04FF70
0FFB04FF70
0FFB04FF70
0FFB04FF70
0FFB04FF70
0FFB04FF70
0FFB04FF70
0FFB04FF70
0FFB07FF50
00002EFF10
02ABFFF900
04FFFFB000
03FEC60000
ENDCHAR
STARTCHAR Jcircumflex
ENCODING 308
SWIDTH 416 0
DWIDTH 8 0
BBX 9 19 0 0
BITMAP
00000A4000
0001BFE400
000AFCFF30
0002A04900
0000000000
00009FF300
00009FF300
00009FF300
00009FF300
00009FF300
00009FF300
00009FF300
00009FF300
00009FF300
0000DFF100
1019FFB000
CDEFFF4000
CFFFF60000
AFEA300000
ENDCHAR
STARTCHAR jcircumflex
ENCODING 309
SWIDTH 237 0
DWIDTH 5 0
BBX 8 19 -3 -4
BITMAP
00003A10
0003EFC1
001EFCFC
00076085
00007750
0000FFC0
0000FFC0
0000FFC0
0000FFC0
0000FFC0
0000FFC0
0000FFC0
0000FFC0
0000FFB0
0002FF90
001BFF50
ABEFFC00
EFFFD200
EED81000
ENDCHAR
STARTCHAR Kcommaaccent
ENCODING 310
SWIDTH 625 0
DWIDTH 13 0
BBX 12 19 1 -5
BITMAP
BFF20002EFE2
BFF2000CFF60
BFF2008FF900
BFF204FFD100
BFF22EFE3000
BFF2BFF60000
BFF9FFF60000
BFFFFFFE1000
BFFFEBFF7000
BFFF52FFE100
BFF9009FF900
BFF2001EFF20
BFF20008FFA0
BFF20001EFF3
000000000000
0000BE400000
0001FF800000
00006F600000
00004D100000
ENDCHAR
STARTCHAR kcommaaccent
ENCODING 311
SWIDTH 539 0
DWIDTH 11 0
BBX 10 20 1 -5
BITMAP
9970000000
FFB0000000
FFB0000000
FFB0000000
FFB0003774
FFB002EFE1
FFB01CFF30
FFB0AFF600
FFB7FF9000
FFDFFF9000
FFFFFFF300
FFFF9FFB00
FFF90BFF50
FFD003FFD0
FFB0009FF7
0000000000
0009F50000
000EFA0000
0004F80000
0002D20000
ENDCHAR
STARTCHAR kgreenlandic
ENCODING 312
SWIDTH 539 0
DWIDTH 11 0
BBX 10 11 1 0
BITMAP
8850003774
FFB002EFE1
FFB01CFF30
FFB0AFF600
FFB7FF9000
FFDFFF9000
FFFFFFF300
FFFF9FFB00
FFF90BFF50
FFD003FFD0
FFB0009FF7
ENDCHAR
STARTCHAR Lacute
ENCODING 313
SWIDTH 562 0
DWIDTH 11 0
BBX 11 18 1 0
BITMAP
000006700000
00008FF40000
0008FFC30000
0004E6000000
BFF200000000
BFF200000000
BFF200000000
BFF200000000
BFF200000000
BFF200000000
BFF200000000
BFF200000000
BFF200000000
BFF200000000
BFF200000000
BFFCCCCCCC10
BFFFFFFFFF20
BFFFFFFFFF20
ENDCHAR
STARTCHAR lacute
ENCODING 314
SWIDTH 235 0
DWIDTH 5 0
BBX 6 20 1 0
BITMAP
000A30
01BFD1
0CFF91
08D400
000000
997000
FFB000
FFB000
FFB000
FFB000
FFB000
FFB000
FFB000
FFB000
FFB000
FFB000
FFB000
FFB000
FFB000
FFB000
ENDCHAR
STARTCHAR Lcommaaccent
ENCODING 315
SWIDTH 562 0
DWIDTH 11 0
BBX 11 19 1 -5
BITMAP
BFF200000000
BFF200000000
BFF200000000
BFF200000000
BFF200000000
BFF200000000
BFF200000000
BFF200000000
BFF200000000
BFF200000000
BFF200000000
BFFCCCCCCC10
BFFFFFFFFF20
BFFFFFFFFF20
000000000000
0006F9000000
000AFE000000
0002DB000000
0000C4000000
ENDCHAR
STARTCHAR lcommaaccent
ENCODING 316
SWIDTH 235 0
DWIDTH 5 0
BBX 3 20 1 -5
BITMAP
9970
FFB0
FFB0
FFB0
FFB0
FFB0
FFB0
FFB0
FFB0
FFB0
FFB0
FFB0
FFB0
FFB0
FFB0
0000
9F50
EFA0
4F70
2D20
ENDCHAR
STARTCHAR Lcaron
ENCODING 317
SWIDTH 562 0
DWIDTH 11 0
BBX 11 14 1 0
BITMAP
BFF25F900000
BFF2AFE00000
BFF22DB00000
BFF20D400000
BFF200000000
BFF200000000
BFF200000000
BFF200000000
BFF200000000
BFF200000000
BFF200000000
BFFCCCCCCC10
BFFFFFFFFF20
BFFFFFFFFF20
ENDCHAR
STARTCHAR lcaron
ENCODING 318
SWIDTH 369 0
DWIDTH 7 0
BBX 7 15 1 0
BITMAP
99700000
FFB1DD20
FFB3FF50
FFB09F30
FFB07B00
FFB00000
FFB00000
FFB00000
FFB00000
FFB00000
FFB00000
FFB00000
FFB00000
FFB00000
FFB00000
ENDCHAR
STARTCHAR Ldot
ENCODING 319
SWIDTH 745 0
DWIDTH 15 0
BBX 13 14 1 0
BITMAP
BFF20000000000
BFF20000000000
BFF20000000000
BFF20000000000
BFF20000000000
BFF20000006920
BFF2000004FFC0
BFF2000004FFC0
BFF20000006920
BFF20000000000
BFF20000000000
BFFCCCCCCC1000
BFFFFFFFFF2000
BFFFFFFFFF2000
ENDCHAR
STARTCHAR ldotaccent
ENCODING 320
SWIDTH 463 0
DWIDTH 9 0
BBX 8 15 1 0
BITMAP
99700000
FFB00000
FFB00000
FFB00000
FFB00000
FFB00000
FFB03960
FFB0DFF3
FFB0DFF3
FFB03960
FFB00000
FFB00000
FFB00000
FFB00000
FFB00000
ENDCHAR
STARTCHAR Lslash
ENCODING 321
SWIDTH 585 0
DWIDTH 12 0
BBX 12 14 0 0
BITMAP
04FF80000000
04FF80000000
04FF80000000
04FF80000000
04FFAA200000
04FFFF200000
19FFFE200000
CFFFB1000000
DFFF80000000
86FF80000000
04FF80000000
04FFECCCCCC7
04FFFFFFFFF8
04FFFFFFFFF8
ENDCHAR
STARTCHAR lslash
ENCODING 322
SWIDTH 319 0
DWIDTH 6 0
BBX 7 15 0 0
BITMAP
02995000
03FF7000
03FF7000
03FF7000
03FF7000
03FF9930
03FFFF30
18FFFE20
BFFFB100
CFFF7000
86FF7000
03FF7000
03FF7000
03FF7000
03FF7000
ENDCHAR
STARTCHAR Nacute
ENCODING 323
SWIDTH 689 0
DWIDTH 14 0
BBX 12 18 1 0
BITMAP
0000001B2000
000002DFC000
00001DFF8000
00000AC30000
BFF900004FF8
BFFF30004FF8
BFFFB0004FF8
BFFFF5004FF8
BFFFFD104FF8
BFF9FF804FF8
BFF2DFF24FF8
BFF25FFA4FF8
BFF20BFF9FF8
BFF202FFFFF8
BFF2008FFFF8
BFF2001EFFF8
BFF20006FFF8
BFF20000CFF8
ENDCHAR
STARTCHAR nacute
ENCODING 324
SWIDTH 562 0
DWIDTH 11 0
BBX 10 16 1 0
BITMAP
0000009400
00000AFE20
0000BFFA10
00007D4000
0000000000
6027A94000
FAFFFFFA00
FFFFFFFF90
FFF714EFF1
FFC0006FF5
FFA0004FF5
FFA0004FF5
FFA0004FF5
FFA0004FF5
FFA0004FF5
FFA0004FF5
ENDCHAR
STARTCHAR Ncommaaccent
ENCODING 325
SWIDTH 689 0
DWIDTH 14 0
BBX 12 19 1 -5
BITMAP
BFF900004FF8
BFFF30004FF8
BFFFB0004FF8
BFFFF5004FF8
BFFFFD104FF8
BFF9FF804FF8
BFF2DFF24FF8
BFF25FFA4FF8
BFF20BFF9FF8
BFF202FFFFF8
BFF2008FFFF8
BFF2001EFFF8
BFF20006FFF8
BFF20000CFF8
000000000000
00002EC10000
00006FF30000
00001AF10000
000009900000
ENDCHAR
STARTCHAR ncommaaccent
ENCODING 326
SWIDTH 562 0
DWIDTH 11 0
BBX 10 16 1 -5
BITMAP
6027A94000
FAFFFFFA00
FFFFFFFF90
FFF714EFF1
FFC0006FF5
FFA0004FF5
FFA0004FF5
FFA0004FF5
FFA0004FF5
FFA0004FF5
FFA0004FF5
0000000000
0006F90000
000AFE0000
0002DB0000
0000C40000
ENDCHAR
STARTCHAR Ncaron
ENCODING 327
SWIDTH 689 0
DWIDTH 14 0
BBX 12 18 1 0
BITMAP
0003D24C1000
0007FEFF4000
00007FF40000
000005400000
BFF900004FF8
BFFF30004FF8
BFFFB0004FF8
BFFFF5004FF8
BFFFFD104FF8
BFF9FF804FF8
BFF2DFF24FF8
BFF25FFA4FF8
BFF20BFF9FF8
BFF202FFFFF8
BFF2008FFFF8
BFF2001EFFF8
BFF20006FFF8
BFF20000CFF8
ENDCHAR
STARTCHAR ncaron
ENCODING 328
SWIDTH 562 0
DWIDTH 11 0
BBX 10 15 1 0
BITMAP
007A189000
00BFEFD100
000AFD2000
0000720000
6027A94000
FAFFFFFA00
FFFFFFFF90
FFF714EFF1
FFC0006FF5
FFA0004FF5
FFA0004FF5
FFA0004FF5
FFA0004FF5
FFA0004FF5
FFA0004FF5
ENDCHAR
STARTCHAR napostrophe
ENCODING 329
SWIDTH 694 0
DWIDTH 14 0
BBX 13 14 0 0
BITMAP
AE500000000000
EF900000000000
5F700000000000
3D123049A72000
0005EBFFFFF600
0005FFFFFFFF40
0005FFE417FFB0
0005FF7000BFE0
0005FF5000AFF0
0005FF5000AFF0
0005FF5000AFF0
0005FF5000AFF0
0005FF5000AFF0
0005FF5000AFF0
ENDCHAR
STARTCHAR Eng
ENCODING 330
SWIDTH 689 0
DWIDTH 14 0
BBX 12 18 1 -4
BITMAP
BFF900004FF8
BFFF30004FF8
BFFFB0004FF8
BFFFF5004FF8
BFFFFD104FF8
BFF9FF804FF8
BFF2DFF24FF8
BFF25FFA4FF8
BFF20BFF9FF8
BFF202FFFFF8
BFF2008FFFF8
BFF2001EFFF8
BFF20006FFF7
BFF20000DFF6
00001005FFF1
00007DDFFF80
00008FFFFA00
00006FEB5000
ENDCHAR
STARTCHAR eng
ENCODING 331
SWIDTH 562 0
DWIDTH 11 0
BBX 10 15 1 -4
BITMAP
6027A94000
FAFFFFFA00
FFFFFFFF90
FFF714EFF1
FFC0006FF5
FFA0004FF5
FFA0005FF5
FFA0005FF5
FFA0005FF5
FFA0005FF5
FFA0008FF4
000003EFE1
004ACFFF70
005FFFFA00
005FEB5000
ENDCHAR
STARTCHAR Omacron
ENCODING 332
SWIDTH 777 0
DWIDTH 16 0
BBX 15 18 0 -1
BITMAP
000008CCCC300000
00000BFFFF400000
0000035765100000
00005CFFFE920000
001AFFFFFFFE5000
00BFFFCAAEFFF500
07FFE500019FFE10
0EFF40000009FF70
4FFA00000001FFC0
6FF600000000CFF0
7FF600000000CFF0
5FF900000001FFD0
1EFF30000008FF80
08FFD300008FFF20
01CFFFB89DFFF600
002CFFFFFFFF7000
00007DFFFFB40000
0000002431000000
ENDCHAR
STARTCHAR omacron
ENCODING 333
SWIDTH 579 0
DWIDTH 12 0
BBX 12 15 0 -1
BITMAP
0008CCCC3000
000AFFFF4000
000344441000
0005ACC82000
00AFFFFFF500
09FFFDEFFF30
2FFE3008FFB0
6FF60000DFF0
8FF300009FF1
7FF40000BFF1
4FFC1004FFC0
0CFFD8AFFF50
02EFFFFFF900
002AFFFD6000
000013200000
ENDCHAR
STARTCHAR Obreve
ENCODING 334
SWIDTH 777 0
DWIDTH 16 0
BBX 15 19 0 -1
BITMAP
0000038368000000
000005FBDE000000
000001CFF8000000
0000001540000000
00005CFFFE920000
001AFFFFFFFE5000
00BFFFCAAEFFF500
07FFE500019FFE10
0EFF40000009FF70
4FFA00000001FFC0
6FF600000000CFF0
7FF600000000CFF0
5FF900000001FFD0
1EFF30000008FF80
08FFD300008FFF20
01CFFFB89DFFF600
002CFFFFFFFF7000
00007DFFFFB40000
0000002431000000
ENDCHAR
STARTCHAR obreve
ENCODING 335
SWIDTH 579 0
DWIDTH 12 0
BBX 12 16 0 -1
BITMAP
000384680000
0005FBDF0000
0000BFF80000
000003200000
0005ACC82000
00AFFFFFF500
09FFFDEFFF30
2FFE3008FFB0
6FF60000DFF0
8FF300009FF1
7FF40000BFF1
4FFC1004FFC0
0CFFD8AFFF50
02EFFFFFF900
002AFFFD6000
000013200000
ENDCHAR
STARTCHAR Ohungarumlaut
ENCODING 336
SWIDTH 777 0
DWIDTH 16 0
BBX 15 21 0 -1
BITMAP
0000002B10400000
000001CFC3FB1000
000009FF6DFE4000
00000BE48FD30000
000001201A200000
0000001220000000
00005CFFFE920000
001AFFFFFFFE5000
00BFFFCAAEFFF500
07FFE500019FFE10
0EFF40000009FF70
4FFA00000001FFC0
6FF600000000CFF0
7FF600000000CFF0
5FF900000001FFD0
1EFF30000008FF80
08FFD300008FFF20
01CFFFB89DFFF600
002CFFFFFFFF7000
00007DFFFFB40000
0000002431000000
ENDCHAR
STARTCHAR ohungarumlaut
ENCODING 337
SWIDTH 579 0
DWIDTH 12 0
BBX 12 17 0 -1
BITMAP
00002B103100
0000CFD3EC10
0008FF7CFF40
000BE57FE400
000030192000
0005ACC82000
00AFFFFFF500
09FFFDEFFF30
2FFE3008FFB0
6FF60000DFF0
8FF300009FF1
7FF40000BFF1
4FFC1004FFC0
0CFFD8AFFF50
02EFFFFFF900
002AFFFD6000
000013200000
ENDCHAR
STARTCHAR OE
ENCODING 338
SWIDTH 1125 0
DWIDTH 23 0
BBX 22 16 0 -1
BITMAP
0000001220000000000000
00005CFFFE92BFFFFFFFFD
001AFFFFFFFFEFFFFFFFFD
00BFFFCAAEFFFFFCCCCCCA
07FFE500019FFFF1000000
0EFF40000009FFF1000000
4FFA00000001FFF7666400
6FF600000000CFFFFFFA00
7FF600000000CFFFFFFA00
5FF900000001FFF7666400
1EFF30000008FFF1000000
08FFD300008FFFF1000000
01CFFFB89DFFFFFCCCCCCA
002CFFFFFFFFEFFFFFFFFD
00007DFFFFB4BFFFFFFFFD
0000002441000000000000
ENDCHAR
STARTCHAR oe
ENCODING 339
SWIDTH 924 0
DWIDTH 19 0
BBX 19 12 0 -1
BITMAP
0005ACC82005ACC82000
00AFFFFFF6AFFFFFE500
09FFFDEFFFFFFDEFFE10
2FFE3008FFFE31DFF400
6FF60000DFF609FF7000
8FF300009FF36FF90000
7FF40000BFF7EFC00000
4FFC1004FFFFFD13A000
0CFFD8AFFFFFFA9EFB00
02EFFFFFFAEFFFFFFA00
002AFFFD602AFFFD6000
00001320000013200000
ENDCHAR
STARTCHAR Racute
ENCODING 340
SWIDTH 651 0
DWIDTH 13 0
BBX 12 19 1 0
BITMAP
000000580000
000006FF5000
00006FFC3000
00003E700000
000000000000
BFFFFFEB5000
BFFFFFFFF900
BFFCCCEFFF80
BFF20006FFE1
BFF200009FF5
BFF200005FF7
BFF200008FF6
BFF20003EFF2
BFFA99BFFFA0
BFFFFFFFFC10
BFFFFFFFF100
BFF433AFF600
BFF2003FFC00
BFF2000BFF30
ENDCHAR
STARTCHAR racute
ENCODING 341
SWIDTH 414 0
DWIDTH 8 0
BBX 8 15 1 0
BITMAP
00005800
0006FF50
006FFD40
003E7000
50046770
F8DFFFF1
FFFFFFF1
FFFA4330
FFD00000
FFA00000
FFA00000
FFA00000
FFA00000
FFA00000
FFA00000
ENDCHAR
STARTCHAR Rcommaaccent
ENCODING 342
SWIDTH 651 0
DWIDTH 13 0
BBX 12 19 1 -5
BITMAP
BFFFFFEB5000
BFFFFFFFF900
BFFCCCEFFF80
BFF20006FFE1
BFF200009FF5
BFF200005FF7
BFF200008FF6
BFF20003EFF2
BFFA99BFFFA0
BFFFFFFFFC10
BFFFFFFFF100
BFF433AFF600
BFF2003FFC00
BFF2000BFF30
000000000000
00007F700000
0000CFC00000
00003EA00000
00001D300000
ENDCHAR
STARTCHAR rcommaaccent
ENCODING 343
SWIDTH 414 0
DWIDTH 8 0
BBX 8 16 1 -5
BITMAP
50046770
F8DFFFF1
FFFFFFF1
FFFA4330
FFD00000
FFA00000
FFA00000
FFA00000
FFA00000
FFA00000
FFA00000
00000000
AF500000
FF900000
5F700000
3D100000
ENDCHAR
STARTCHAR Rcaron
ENCODING 344
SWIDTH 651 0
DWIDTH 13 0
BBX 12 18 1 0
BITMAP
000890970000
000CFEFC1000
0001BFC10000
000008100000
BFFFFFEB5000
BFFFFFFFF900
BFFCCCEFFF80
BFF20006FFE1
BFF200009FF5
BFF200005FF7
BFF200008FF6
BFF20003EFF2
BFFA99BFFFA0
BFFFFFFFFC10
BFFFFFFFF100
BFF433AFF600
BFF2003FFC00
BFF2000BFF30
ENDCHAR
STARTCHAR rcaron
ENCODING 345
SWIDTH 414 0
DWIDTH 8 0
BBX 8 15 1 0
BITMAP
1C42C300
4FFEF700
04EF8000
00370000
50046770
F8DFFFF1
FFFFFFF1
FFFA4330
FFD00000
FFA00000
FFA00000
FFA00000
FFA00000
FFA00000
FFA00000
ENDCHAR
STARTCHAR Sacute
ENCODING 346
SWIDTH 610 0
DWIDTH 12 0
BBX 12 19 0 0
BITMAP
000000058000
0000006FF500
000006FFC300
000003E70000
000000000000
005CFFFFFFF2
07FFFFFFFFF2
2FFFDCCCCCC1
7FF800000000
7FF500000000
4FFD76664000
0BFFFFFFFC20
01BFFFFFFFD1
00036666CFF7
000000003FFA
000000006FF9
09CCCCCCFFF4
0BFFFFFFFF90
0BFFFFFFD600
ENDCHAR
STARTCHAR sacute
ENCODING 347
SWIDTH 523 0
DWIDTH 10 0
BBX 11 15 0 0
BITMAP
0000003A0000
000004EF8000
00003FFE6000
00001D910000
001677777300
04EFFFFFF600
1EFFFFFFF600
4FF933333100
3FFB77651000
0DFFFFFFD300
02CFFFFFFC00
0002333BFF10
3AAAAAAEFE00
5FFFFFFFF700
5FFFFFFD7000
ENDCHAR
STARTCHAR Scircumflex
ENCODING 348
SWIDTH 610 0
DWIDTH 12 0
BBX 12 19 0 0
BITMAP
000006800000
00007FF90000
0005FEDF8000
0000931A2000
000000000000
005CFFFFFFF2
07FFFFFFFFF2
2FFFDCCCCCC1
7FF800000000
7FF500000000
4FFD76664000
0BFFFFFFFC20
01BFFFFFFFD1
00036666CFF7
000000003FFA
000000006FF9
09CCCCCCFFF4
0BFFFFFFFF90
0BFFFFFFD600
ENDCHAR
STARTCHAR scircumflex
ENCODING 349
SWIDTH 523 0
DWIDTH 10 0
BBX 11 15 0 0
BITMAP
000049000000
0005FFB10000
003FFCFA0000
000840A30000
001677777300
04EFFFFFF600
1EFFFFFFF600
4FF933333100
3FFB77651000
0DFFFFFFD300
02CFFFFFFC00
0002333BFF10
3AAAAAAEFE00
5FFFFFFFF700
5FFFFFFD7000
ENDCHAR
STARTCHAR Scedilla
ENCODING 350
SWIDTH 610 0
DWIDTH 12 0
BBX 12 19 0 -5
BITMAP
005CFFFFFFF2
07FFFFFFFFF2
2FFFDCCCCCC1
7FF800000000
7FF500000000
4FFD76664000
0BFFFFFFFC20
01BFFFFFFFD1
00036666CFF7
000000003FFA
000000006FF9
09CCCCCCFFF4
0BFFFFFFFF90
0BFFFFFFD600
000006D00000
00000AFC0000
000064DF2000
0000CFFD0000
000016610000
ENDCHAR
STARTCHAR scedilla
ENCODING 351
SWIDTH 523 0
DWIDTH 10 0
BBX 11 16 0 -5
BITMAP
001677777300
04EFFFFFF600
1EFFFFFFF600
4FF933333100
3FFB77651000
0DFFFFFFD300
02CFFFFFFC00
0002333BFF10
3AAAAAAEFE00
5FFFFFFFF700
5FFFFFFD7000
00004E100000
00008FD10000
00055BF40000
000AFFE10000
000167200000
ENDCHAR
STARTCHAR Scaron
ENCODING 352
SWIDTH 610 0
DWIDTH 12 0
BBX 12 19 0 0
BITMAP
0001D42C2000
0004FFEF6000
00004EF70000
000003600000
000000000000
005CFFFFFFF2
07FFFFFFFFF2
2FFFDCCCCCC1
7FF800000000
7FF500000000
4FFD76664000
0BFFFFFFFC20
01BFFFFFFFD1
00036666CFF7
000000003FFA
000000006FF9
09CCCCCCFFF4
0BFFFFFFFF90
0BFFFFFFD600
ENDCHAR
STARTCHAR scaron
ENCODING 353
SWIDTH 523 0
DWIDTH 10 0
BBX 11 15 0 0
BITMAP
000990A70000
001DFEFC0000
0001CFC10000
000018100000
001677777300
04EFFFFFF600
1EFFFFFFF600
4FF933333100
3FFB77651000
0DFFFFFFD300
02CFFFFFFC00
0002333BFF10
3AAAAAAEFE00
5FFFFFFFF700
5FFFFFFD7000
ENDCHAR
STARTCHAR Tcommaaccent
ENCODING 354
SWIDTH 578 0
DWIDTH 12 0
BBX 12 19 0 -5
BITMAP
CFFFFFFFFFF6
CFFFFFFFFFF6
ACCCEFFCCCC4
00009FF30000
00009FF30000
00009FF30000
00009FF30000
00009FF30000
00009FF30000
00009FF30000
00009FF30000
00009FF30000
00009FF30000
00009FF30000
000000000000
00004EB00000
00008FF10000
00001BE00000
00000A700000
ENDCHAR
STARTCHAR tcommaaccent
ENCODING 355
SWIDTH 437 0
DWIDTH 9 0
BBX 9 20 0 -5
BITMAP
0499200000
06FF400000
06FF400000
06FF400000
5AFF977720
BFFFFFFF40
BFFFFFFF40
28FF633310
06FF400000
06FF400000
06FF400000
04FFA00000
00DFFDAA30
003EFFFF40
0002AEFF40
0000000000
0009F50000
000EFA0000
0004F80000
0002D20000
ENDCHAR
STARTCHAR Tcaron
ENCODING 356
SWIDTH 578 0
DWIDTH 12 0
BBX 12 18 0 0
BITMAP
0004C16B0000
0009FEFE3000
00008FE30000
000006300000
CFFFFFFFFFF6
CFFFFFFFFFF6
ACCCEFFCCCC4
00009FF30000
00009FF30000
00009FF30000
00009FF30000
00009FF30000
00009FF30000
00009FF30000
00009FF30000
00009FF30000
00009FF30000
00009FF30000
ENDCHAR
STARTCHAR tcaron
ENCODING 357
SWIDTH 570 0
DWIDTH 11 0
BBX 12 15 0 0
BITMAP
049920000000
06FF40001CE2
06FF40003FF6
06FF400008F3
5AFF977726B0
BFFFFFFF4000
BFFFFFFF4000
28FF63331000
06FF40000000
06FF40000000
06FF40000000
04FFA0000000
00DFFDAA3000
003EFFFF4000
0002AEFF4000
ENDCHAR
STARTCHAR Tbar
ENCODING 358
SWIDTH 578 0
DWIDTH 12 0
BBX 12 14 0 0
BITMAP
CFFFFFFFFFF6
CFFFFFFFFFF6
ACCCEFFCCCC4
00009FF30000
00009FF30000
00009FF30000
0014BFF63000
003FFFFFC000
003FFFFFC000
0016BFF74000
00009FF30000
00009FF30000
00009FF30000
00009FF30000
ENDCHAR
STARTCHAR tbar
ENCODING 359
SWIDTH 437 0
DWIDTH 9 0
BBX 9 15 0 0
BITMAP
0499200000
06FF400000
06FF400000
06FF400000
5AFF977720
BFFFFFFF40
BFFFFFFF40
28FF633310
7CFFBA4000
BFFFFF5000
8DFFDC4000
04FFA00000
00CFFDAA30
002EFFFF40
00019EFF40
ENDCHAR
STARTCHAR Utilde
ENCODING 360
SWIDTH 673 0
DWIDTH 13 0
BBX 12 18 1 0
BITMAP
0008B70AA000
005FFFBFE000
007FAAFFA000
002840561000
DFE000007FF5
DFE000007FF5
DFE000007FF5
DFE000007FF5
DFE000007FF5
DFE000007FF5
DFE000007FF5
DFE000007FF5
DFE000007FF5
BFF30000BFF3
6FFD2008FFE0
1DFFFDEFFF60
02DFFFFFF800
0018DFEA4000
ENDCHAR
STARTCHAR utilde
ENCODING 361
SWIDTH 562 0
DWIDTH 11 0
BBX 11 16 0 -1
BITMAP
0019B61A9000
007FFFBFC000
008F9BFF8000
003840660000
177400037710
2FF80007FF30
2FF80007FF30
2FF80007FF30
2FF80007FF30
2FF80007FF30
2FF90007FF30
0FFD000CFF30
0AFFC8CFFF30
02EFFFFFEF30
002BFFF91C30
000013100000
ENDCHAR
STARTCHAR Umacron
ENCODING 362
SWIDTH 673 0
DWIDTH 13 0
BBX 12 17 1 0
BITMAP
0008CCCC2000
000BFFFF3000
000344441000
DFE000007FF5
DFE000007FF5
DFE000007FF5
DFE000007FF5
DFE000007FF5
DFE000007FF5
DFE000007FF5
DFE000007FF5
DFE000007FF5
BFF30000BFF3
6FFD2008FFE0
1DFFFDEFFF60
02DFFFFFF800
0018DFEA4000
ENDCHAR
STARTCHAR umacron
ENCODING 363
SWIDTH 562 0
DWIDTH 11 0
BBX 11 15 0 -1
BITMAP
000ACCCC1000
000DFFFF1000
000444440000
177400037710
2FF80007FF30
2FF80007FF30
2FF80007FF30
2FF80007FF30
2FF80007FF30
2FF90007FF30
0FFD000CFF30
0AFFC8CFFF30
02EFFFFFEF30
002BFFF91C30
000013100000
ENDCHAR
STARTCHAR Ubreve
ENCODING 364
SWIDTH 673 0
DWIDTH 13 0
BBX 12 18 1 0
BITMAP
000383670000
0005FBEE0000
0001CFF80000
000003200000
DFE000007FF5
DFE000007FF5
DFE000007FF5
DFE000007FF5
DFE000007FF5
DFE000007FF5
DFE000007FF5
DFE000007FF5
DFE000007FF5
BFF30000BFF3
6FFD2008FFE0
1DFFFDEFFF60
02DFFFFFF800
0018DFEA4000
ENDCHAR
STARTCHAR ubreve
ENCODING 365
SWIDTH 562 0
DWIDTH 11 0
BBX 11 15 0 -1
BITMAP
000581860000
0009FAFB0000
0002EFF50000
177413137710
2FF80007FF30
2FF80007FF30
2FF80007FF30
2FF80007FF30
2FF80007FF30
2FF90007FF30
0FFD000CFF30
0AFFC8CFFF30
02EFFFFFEF30
002BFFF91C30
000013100000
ENDCHAR
STARTCHAR Uring
ENCODING 366
SWIDTH 673 0
DWIDTH 13 0
BBX 12 19 1 0
BITMAP
000001000000
00009FE20000
0002F6C90000
0001EBE70000
00004A800000
DFE000007FF5
DFE000007FF5
DFE000007FF5
DFE000007FF5
DFE000007FF5
DFE000007FF5
DFE000007FF5
DFE000007FF5
DFE000007FF5
BFF30000BFF3
6FFD2008FFE0
1DFFFDEFFF60
02DFFFFFF800
0018DFEA4000
ENDCHAR
STARTCHAR uring
ENCODING 367
SWIDTH 562 0
DWIDTH 11 0
BBX 11 17 0 -1
BITMAP
000001000000
0000BFD10000
0004F4D70000
0002FAF50000
00005A700000
177400037710
2FF80007FF30
2FF80007FF30
2FF80007FF30
2FF80007FF30
2FF80007FF30
2FF90007FF30
0FFD000CFF30
0AFFC8CFFF30
02EFFFFFEF30
002BFFF91C30
000013100000
ENDCHAR
STARTCHAR Uhungarumlaut
ENCODING 368
SWIDTH 673 0
DWIDTH 13 0
BBX 12 19 1 0
BITMAP
00002B104000
0000CFD3EB10
0009FF6DFE40
000BE48FE300
000120192000
DFE000007FF5
DFE000007FF5
DFE000007FF5
DFE000007FF5
DFE000007FF5
DFE000007FF5
DFE000007FF5
DFE000007FF5
DFE000007FF5
BFF30000BFF3
6FFD2008FFE0
1DFFFDEFFF60
02DFFFFFF800
0018DFEA4000
ENDCHAR
STARTCHAR uhungarumlaut
ENCODING 369
SWIDTH 562 0
DWIDTH 11 0
BBX 11 17 0 -1
BITMAP
00003A104000
0001DFB4FA00
000BFE6EFE30
001CE3AFD200
000120291000
177400037710
2FF80007FF30
2FF80007FF30
2FF80007FF30
2FF80007FF30
2FF80007FF30
2FF90007FF30
0FFD000CFF30
0AFFC8CFFF30
02EFFFFFEF30
002BFFF91C30
000013100000
ENDCHAR
STARTCHAR Uogonek
ENCODING 370
SWIDTH 673 0
DWIDTH 13 0
BBX 12 18 1 -4
BITMAP
DFE000007FF5
DFE000007FF5
DFE000007FF5
DFE000007FF5
DFE000007FF5
DFE000007FF5
DFE000007FF5
DFE000007FF5
DFE000007FF5
BFF30000BFF3
6FFD2008FFD0
0DFFFDEFFF50
02DFFFFFF800
0018DFEA4000
0001DB000000
0006F9800000
0004FFF70000
000048500000
ENDCHAR
STARTCHAR uogonek
ENCODING 371
SWIDTH 562 0
DWIDTH 11 0
BBX 12 15 0 -4
BITMAP
177400037710
2FF80007FF30
2FF80007FF30
2FF80007FF30
2FF80007FF30
2FF80007FF30
2FF90007FF30
0FFD000CFF30
0AFFC8CFFF30
02EFFFFFEF30
002BFFF92E30
00001310CD00
00000004FA81
00000002FFF9
000000003860
ENDCHAR
STARTCHAR Wcircumflex
ENCODING 372
SWIDTH 819 0
DWIDTH 16 0
BBX 15 20 1 -1
BITMAP
0000005900000000
000006FFA0000000
00004FECF9000000
00000931A2000000
0000000000000000
CFF003FF9009FF30
CFF003FF9009FF30
CFF003FF9009FF30
CFF003FF9009FF30
CFF003FF9009FF30
CFF003FF9009FF30
CFF003FF9009FF30
CFF003FF9009FF30
CFF003FF9009FF30
CFF003FF9009FF30
BFF205FFB00BFF20
7FFDAEFFFBBFFD00
1DFFFFFFFFFFF400
01AFFF85DFFD4000
0001310002200000
ENDCHAR
STARTCHAR wcircumflex
ENCODING 373
SWIDTH 756 0
DWIDTH 15 0
BBX 15 16 0 -1
BITMAP
0000001A20000000
000002DFE3000000
00000CFCFE100000
0000048067000000
0774005760037710
1FF900CFD007FF30
1FF900CFD007FF30
1FF900CFD007FF30
1FF900CFD007FF30
1FF900CFD007FF30
1FF900CFD007FF30
1FFA00DFE008FF30
0DFF9AFFFB8EFE10
04FFFFFFFFFFF600
005EFFC5BFFE6000
0000220002300000
ENDCHAR
STARTCHAR Ycircumflex
ENCODING 374
SWIDTH 620 0
DWIDTH 12 0
BBX 12 18 0 0
BITMAP
000005900000
00006FFA0000
0004FECF9000
0000931A2000
6FF600000FFC
6FF600000FFC
6FF600000FFC
6FF600000FFC
6FF700001FFC
3FFC00006FF9
0CFFA216EFF4
04FFFFFFFFA0
005EFFFFFA00
00029FFC4000
00003FF90000
00003FF90000
00003FF90000
00003FF90000
ENDCHAR
STARTCHAR ycircumflex
ENCODING 375
SWIDTH 562 0
DWIDTH 11 0
BBX 11 19 0 -4
BITMAP
00001A200000
0001CFE30000
000CFCFE1000
000490580000
177400037720
2FF80007FF40
2FF80007FF40
2FF80007FF40
2FF80007FF40
2FF80007FF40
2FF90007FF40
0FFC000CFF40
0AFFC8CFFF40
02EFFFFFFF40
002BFFEEFF20
0000134FFD00
0005ACFFF600
0007FFFF8000
0007FEB50000
ENDCHAR
STARTCHAR Ydieresis
ENCODING 376
SWIDTH 620 0
DWIDTH 12 0
BBX 12 17 0 0
BITMAP
0008F61DD100
000BF92FF200
000161044000
6FF600000FFC
6FF600000FFC
6FF600000FFC
6FF600000FFC
6FF700001FFC
3FFC00006FF9
0CFFA216EFF4
04FFFFFFFFA0
005EFFFFFA00
00029FFC4000
00003FF90000
00003FF90000
00003FF90000
00003FF90000
ENDCHAR
STARTCHAR Zacute
ENCODING 377
SWIDTH 586 0
DWIDTH 12 0
BBX 12 19 0 0
BITMAP
000000085000
0000009FE200
00000AFFB200
000005E50000
000000000000
8FFFFFFFFFE1
8FFFFFFFFF70
7CCCCCEFFE10
000001EFF700
000007FFD000
00001EFF6000
00008FFC0000
0002FFF50000
0009FFC00000
002FFF400000
00AFFB000000
03FFFDCCCCC4
0BFFFFFFFFF4
4FFFFFFFFFF4
ENDCHAR
STARTCHAR zacute
ENCODING 378
SWIDTH 481 0
DWIDTH 10 0
BBX 10 15 0 0
BITMAP
0000009400
00000AFE20
0000AFFA20
00006D5000
4777777770
8FFFFFFFA0
8FFFFFFF20
23338FF800
0000DFE100
0007FF6000
001EFC0000
009FF40000
02FFEAAAA2
0BFFFFFFF3
4FFFFFFFF3
ENDCHAR
STARTCHAR Zdotaccent
ENCODING 379
SWIDTH 586 0
DWIDTH 12 0
BBX 12 18 0 0
BITMAP
000002100000
00003FE10000
00003FE10000
000003200000
8FFFFFFFFFE1
8FFFFFFFFF70
7CCCCCEFFE10
000001EFF700
000007FFD000
00001EFF6000
00008FFC0000
0002FFF50000
0009FFC00000
002FFF400000
00AFFB000000
03FFFDCCCCC4
0BFFFFFFFFF4
4FFFFFFFFFF4
ENDCHAR
STARTCHAR zdotaccent
ENCODING 380
SWIDTH 481 0
DWIDTH 10 0
BBX 10 15 0 0
BITMAP
0000210000
0004FD0000
0004FE0000
0000310000
4777777770
8FFFFFFFA0
8FFFFFFF20
23338FF800
0000DFE100
0007FF6000
001EFC0000
009FF40000
02FFEAAAA2
0BFFFFFFF3
4FFFFFFFF3
ENDCHAR
STARTCHAR Zcaron
ENCODING 381
SWIDTH 586 0
DWIDTH 12 0
BBX 12 19 0 0
BITMAP
0003D24C1000
0007FEFF4000
00007FF40000
000005400000
000000000000
8FFFFFFFFFE1
8FFFFFFFFF70
7CCCCCEFFE10
000001EFF700
000007FFD000
00001EFF6000
00008FFC0000
0002FFF50000
0009FFC00000
002FFF400000
00AFFB000000
03FFFDCCCCC4
0BFFFFFFFFF4
4FFFFFFFFFF4
ENDCHAR
STARTCHAR zcaron
ENCODING 382
SWIDTH 481 0
DWIDTH 10 0
BBX 10 15 0 0
BITMAP
004C25B000
008FEFE300
0008FE4000
0000630000
4777777770
8FFFFFFFA0
8FFFFFFF20
23338FF800
0000DFE100
0007FF6000
001EFC0000
009FF40000
02FFEAAAA2
0BFFFFFFF3
4FFFFFFFF3
ENDCHAR
STARTCHAR AEacute
ENCODING 508
SWIDTH 988 0
DWIDTH 20 0
BBX 19 19 1 0
BITMAP
00000000001A30000000
0000000001CFD1000000
000000000CFF91000000
0000000008C300000000
00000000000000000000
0018DFFFFFFFFFFFFF20
02DFFFFFFFFFFFFFFF20
1DFFFDCCDFFDCCCCCC10
6FFD20007FF500000000
BFF300007FF500000000
DFE000007FF966660000
DFE000007FFFFFFE0000
DFE000007FFFFFFE0000
DFF99999CFF966660000
DFFFFFFFFFF500000000
DFFFFFFFFFF500000000
DFE333339FFDCCCCCC10
DFE000007FFFFFFFFF20
DFE000007FFFFFFFFF20
ENDCHAR
STARTCHAR aeacute
ENCODING 509
SWIDTH 976 0
DWIDTH 20 0
BBX 20 16 0 -1
BITMAP
000000000003A0000000
00000000004EF8000000
0000000003FFE6000000
0000000001D910000000
0005ACC710515ACC8200
00BFFFFFD7FCFFFFFE50
09FFFDFFFFFFFFDEFFE1
2FFE3019FFFFE41CFF50
6FF60000DFFF709FF700
8FF300009FFF35FFA000
7FF50000BFFF7EFC0000
4FFB0004FFFFFFD13A00
0DFFD8AFFFFFFFA9EFB0
03EFFFFFFCFEFFFFFFA0
003BFFFC40C4AFFFD700
00001320000001320000
ENDCHAR
STARTCHAR Oslashacute
ENCODING 510
SWIDTH 777 0
DWIDTH 16 0
BBX 15 20 0 -1
BITMAP
000000001B200000
00000002DFC00000
0000001DFF800000
0000000AB2000000
0000001310000000
00005CFFFE9CFC00
001AFFFFFFFFF300
00BFFFCAAEFFF500
07FFE5001EFFFE10
0EFF4000BFDAFF80
4FFA0007FF31FFC0
6FF6003FF700CFE0
6FF601DFB000CFF0
5FF90AFE2001FFD0
1EFF8FF40008FF80
08FFFF80008FFF20
01DFFFB89DFFF600
009FFFFFFFFF7000
04FFADFFFFB40000
0000002431000000
ENDCHAR
STARTCHAR oslashacute
ENCODING 511
SWIDTH 579 0
DWIDTH 12 0
BBX 12 17 0 -1
BITMAP
0000000A4000
000001BFE100
00000BFFA100
000007D40000
000000000000
0005ACC87980
00AFFFFFFF50
09FFFDEFFF30
2FFE30CFFFB0
6FF609FEDFF0
8FF35FF59FF1
7FF6EF90BFF1
4FFFFC04FFC0
0CFFFAAFFF50
07FFFFFFF900
2EFDFFFD6000
000012200000
ENDCHAR
STARTCHAR dotlessj
ENCODING 567
SWIDTH 237 0
DWIDTH 5 0
BBX 7 15 -3 -4
BITMAP
00007750
0000FFC0
0000FFC0
0000FFC0
0000FFC0
0000FFC0
0000FFC0
0000FFC0
0000FFC0
0000FFB0
0002FF90
001BFF50
ABEFFC00
EFFFD200
EED81000
ENDCHAR
STARTCHAR circumflex
ENCODING 710
SWIDTH 267 0
DWIDTH 5 0
BBX 6 4 0 10
BITMAP
01A300
1CFE40
BFCFF2
390580
ENDCHAR
STARTCHAR caron
ENCODING 711
SWIDTH 267 0
DWIDTH 5 0
BBX 6 4 0 10
BITMAP
6B17A0
AFEFE2
09FD20
007200
ENDCHAR
STARTCHAR breve
ENCODING 728
SWIDTH 220 0
DWIDTH 4 0
BBX 5 4 0 10
BITMAP
873830
EEBF50
7FFD10
013000
ENDCHAR
STARTCHAR dotaccent
ENCODING 729
SWIDTH 125 0
DWIDTH 3 0
BBX 3 4 0 10
BITMAP
1200
CF50
DF50
1300
ENDCHAR
STARTCHAR ring
ENCODING 730
SWIDTH 192 0
DWIDTH 4 0
BBX 4 5 0 10
BITMAP
0110
6FE4
E8AC
CCDA
2991
ENDCHAR
STARTCHAR ogonek
ENCODING 731
SWIDTH 212 0
DWIDTH 4 0
BBX 5 5 0 -4
BITMAP
057000
6F3000
EE7300
BFFE10
177200
ENDCHAR
STARTCHAR tilde
ENCODING 732
SWIDTH 321 0
DWIDTH 6 0
BBX 7 4 0 10
BITMAP
3BA25B40
DFFECF60
EF6EFF20
78027300
ENDCHAR
STARTCHAR hungarumlaut
ENCODING 733
SWIDTH 384 0
DWIDTH 8 0
BBX 8 5 0 10
BITMAP
01B20310
0BFD3EC1
7FF8CFF5
AF56FE40
03009300
ENDCHAR
STARTCHAR uni0312
ENCODING 786
SWIDTH 192 0
DWIDTH 4 0
BBX 4 5 0 10
BITMAP
0740
2F50
5FF2
4FF2
0430
ENDCHAR
STARTCHAR uni0315
ENCODING 789
SWIDTH 132 0
DWIDTH 3 0
BBX 3 4 0 10
BITMAP
AE50
EF90
5F70
3D10
ENDCHAR
STARTCHAR uni0326
ENCODING 806
SWIDTH 193 0
DWIDTH 4 0
BBX 4 4 0 -5
BITMAP
2ED1
5FF4
0AF1
0890
ENDCHAR
STARTCHAR pi
ENCODING 960
SWIDTH 555 0
DWIDTH 11 0
BBX 11 11 0 0
BITMAP
477777777750
AFFFFFFFFFC0
AFFFFFFFFFC0
23FFB3AFF520
00FFA08FF200
00FFA08FF200
00FFA08FF200
00FFA08FF200
00FFA08FF200
00FFA08FF200
00FFA08FF200
ENDCHAR
STARTCHAR Wgrave
ENCODING 7808
SWIDTH 819 0
DWIDTH 16 0
BBX 15 20 1 -1
BITMAP
0000580000000000
0003EF9000000000
0002BFF900000000
000005E500000000
0000000000000000
CFF003FF9009FF30
CFF003FF9009FF30
CFF003FF9009FF30
CFF003FF9009FF30
CFF003FF9009FF30
CFF003FF9009FF30
CFF003FF9009FF30
CFF003FF9009FF30
CFF003FF9009FF30
CFF003FF9009FF30
BFF205FFB00BFF20
7FFDAEFFFBBFFD00
1DFFFFFFFFFFF400
01AFFF85DFFD4000
0001310002200000
ENDCHAR
STARTCHAR wgrave
ENCODING 7809
SWIDTH 756 0
DWIDTH 15 0
BBX 15 16 0 -1
BITMAP
00003A1000000000
0001DFB100000000
00019FFC00000000
000004C800000000
0774005760037710
1FF900CFD007FF30
1FF900CFD007FF30
1FF900CFD007FF30
1FF900CFD007FF30
1FF900CFD007FF30
1FF900CFD007FF30
1FFA00DFE008FF30
0DFF9AFFFB8EFE10
04FFFFFFFFFFF600
005EFFC5BFFE6000
0000220002300000
ENDCHAR
STARTCHAR Wacute
ENCODING 7810
SWIDTH 819 0
DWIDTH 16 0
BBX 15 20 1 -1
BITMAP
0000000059000000
00000005FF600000
0000005FFD400000
0000002E81000000
0000000000000000
CFF003FF9009FF30
CFF003FF9009FF30
CFF003FF9009FF30
CFF003FF9009FF30
CFF003FF9009FF30
CFF003FF9009FF30
CFF003FF9009FF30
CFF003FF9009FF30
CFF003FF9009FF30
CFF003FF9009FF30
BFF205FFB00BFF20
7FFDAEFFFBBFFD00
1DFFFFFFFFFFF400
01AFFF85DFFD4000
0001310002200000
ENDCHAR
STARTCHAR wacute
ENCODING 7811
SWIDTH 756 0
DWIDTH 15 0
BBX 15 16 0 -1
BITMAP
000000000A400000
00000001BFE10000
0000000BFFA10000
00000007D4000000
0774005760037710
1FF900CFD007FF30
1FF900CFD007FF30
1FF900CFD007FF30
1FF900CFD007FF30
1FF900CFD007FF30
1FF900CFD007FF30
1FFA00DFE008FF30
0DFF9AFFFB8EFE10
04FFFFFFFFFFF600
005EFFC5BFFE6000
0000220002300000
ENDCHAR
STARTCHAR Wdieresis
ENCODING 7812
SWIDTH 819 0
DWIDTH 16 0
BBX 15 18 1 -1
BITMAP
00008F61DD100000
0000BF92FF200000
0000161044000000
CFF003FF9009FF30
CFF003FF9009FF30
CFF003FF9009FF30
CFF003FF9009FF30
CFF003FF9009FF30
CFF003FF9009FF30
CFF003FF9009FF30
CFF003FF9009FF30
CFF003FF9009FF30
CFF003FF9009FF30
BFF205FFB00BFF20
7FFDAEFFFBBFFD00
1DFFFFFFFFFFF400
01AFFF85DFFD4000
0001310002200000
ENDCHAR
STARTCHAR wdieresis
ENCODING 7813
SWIDTH 756 0
DWIDTH 15 0
BBX 15 15 0 -1
BITMAP
00003EC08F500000
00005FE0CF700000
0000053025000000
0774005760037710
1FF900CFD007FF30
1FF900CFD007FF30
1FF900CFD007FF30
1FF900CFD007FF30
1FF900CFD007FF30
1FF900CFD007FF30
1FFA00DFE008FF30
0DFF9AFFFB8EFE10
04FFFFFFFFFFF600
005EFFC5BFFE6000
0000220002300000
ENDCHAR
STARTCHAR Ygrave
ENCODING 7922
SWIDTH 620 0
DWIDTH 12 0
BBX 12 19 0 0
BITMAP
000A40000000
008FE4000000
005EFF400000
00019D100000
000000000000
6FF600000FFC
6FF600000FFC
6FF600000FFC
6FF600000FFC
6FF700001FFC
3FFC00006FF9
0CFFA216EFF4
04FFFFFFFFA0
005EFFFFFA00
00029FFC4000
00003FF90000
00003FF90000
00003FF90000
00003FF90000
ENDCHAR
STARTCHAR ygrave
ENCODING 7923
SWIDTH 562 0
DWIDTH 11 0
BBX 11 19 0 -4
BITMAP
006800000000
03FF90000000
02BFF9000000
0006E5000000
177400037720
2FF80007FF40
2FF80007FF40
2FF80007FF40
2FF80007FF40
2FF80007FF40
2FF90007FF40
0FFC000CFF40
0AFFC8CFFF40
02EFFFFFFF40
002BFFEEFF20
0000134FFD00
0005ACFFF600
0007FFFF8000
0007FEB50000
ENDCHAR
STARTCHAR endash
ENCODING 8211
SWIDTH 418 0
DWIDTH 8 0
BBX 7 4 1 5
BITMAP
56666610
CFFFFF30
CFFFFF30
34444410
ENDCHAR
STARTCHAR emdash
ENCODING 8212
SWIDTH 719 0
DWIDTH 14 0
BBX 13 4 1 5
BITMAP
56666666666610
CFFFFFFFFFFF30
CFFFFFFFFFFF30
34444444444410
ENDCHAR
STARTCHAR quoteleft
ENCODING 8216
SWIDTH 246 0
DWIDTH 5 0
BBX 5 6 0 8
BITMAP
03C200
0BE100
1FFB00
2FFF20
0CFC00
002000
ENDCHAR
STARTCHAR quoteright
ENCODING 8217
SWIDTH 245 0
DWIDTH 5 0
BBX 5 6 0 8
BITMAP
0AF800
3FFF10
1EFF00
02FB00
04E300
001000
ENDCHAR
STARTCHAR quotesinglbase
ENCODING 8218
SWIDTH 264 0
DWIDTH 5 0
BBX 4 6 1 -3
BITMAP
3950
EFF3
EFF4
3DF1
1E90
0510
ENDCHAR
STARTCHAR quotedblleft
ENCODING 8220
SWIDTH 445 0
DWIDTH 9 0
BBX 9 6 0 8
BITMAP
03C203C200
0BE10BE100
1FFB1FFB00
2FFF4FFF20
0CFC0CFC00
0020002000
ENDCHAR
STARTCHAR quotedblright
ENCODING 8221
SWIDTH 444 0
DWIDTH 9 0
BBX 9 6 0 8
BITMAP
0AF80AF800
3FFF4FFF10
1EFF1EFF00
02FB02FB00
04E304E300
0010001000
ENDCHAR
STARTCHAR quotedblbase
ENCODING 8222
SWIDTH 463 0
DWIDTH 9 0
BBX 8 6 1 -3
BITMAP
39503950
EFF3EFF2
EFF4EFF4
3DF14DF1
1E901EA0
05100510
ENDCHAR
STARTCHAR dagger
ENCODING 8224
SWIDTH 434 0
DWIDTH 9 0
BBX 8 18 0 -2
BITMAP
001FFC00
001FFC00
001FFC00
267FFD66
5FFFFFFF
5FFFFFFF
145FFC44
001FFC00
001FFC00
001FFC00
001FFC00
001FFC00
001FFC00
001FFC00
001FFC00
001FFC00
001FFC00
001FFC00
ENDCHAR
STARTCHAR daggerdbl
ENCODING 8225
SWIDTH 452 0
DWIDTH 9 0
BBX 9 18 0 -2
BITMAP
000DFE0000
000DFE0000
000DFE0000
166EFE6610
3FFFFFFF30
3FFFFFFF30
144EFE4410
000DFE0000
000DFE0000
000DFE0000
000DFE0000
166EFE6610
3FFFFFFF30
3FFFFFFF30
144EFE4410
000DFE0000
000DFE0000
000DFE0000
ENDCHAR
STARTCHAR bullet
ENCODING 8226
SWIDTH 354 0
DWIDTH 7 0
BBX 5 5 1 5
BITMAP
014100
2EFE30
7FFF90
5FFF70
08C900
ENDCHAR
STARTCHAR ellipsis
ENCODING 8230
SWIDTH 789 0
DWIDTH 16 0
BBX 14 4 1 -1
BITMAP
39500187000781
EFF30AFF606FFA
EFF30AFF606FFA
3A600298000892
ENDCHAR
STARTCHAR perthousand
ENCODING 8240
SWIDTH 998 0
DWIDTH 20 0
BBX 20 16 0 -1
BITMAP
00131000000000000000
04EFF60008F900000000
0DFAEF202FE100000000
2FB08F50AF7000000000
3FA07F63FD1000000000
1FD1BF4BF60000000000
0AFFFD5FC00000000000
019CA2CF400000000000
000006FB4BC8002ADA20
00001DF5FFFF80DFFFC0
00007F97F82FE4FB0CF2
0001EF29F40DF5F809F4
0009F808F60EE4F90AF3
002FE104FECFA1EFBFE0
00AF60008FFD205EFE40
00000000012000012100
ENDCHAR
STARTCHAR guilsinglleft
ENCODING 8249
SWIDTH 403 0
DWIDTH 8 0
BBX 8 10 0 0
BITMAP
00003D40
0003EFE1
003EFF50
02EFF500
2DFF5000
2DFF8000
02DFF900
001CFFA0
0001CFC1
00001910
ENDCHAR
STARTCHAR guilsinglright
ENCODING 8250
SWIDTH 402 0
DWIDTH 8 0
BBX 8 10 0 0
BITMAP
03D40000
1EFE3000
04EFE300
004EFE30
0004FFE2
0007FFD2
008FFD20
09FFD200
0BFC1000
01910000
ENDCHAR
STARTCHAR fraction
ENCODING 8260
SWIDTH 477 0
DWIDTH 10 0
BBX 10 14 0 0
BITMAP
0000000BF6
0000004FD0
000000CF40
000005FB00
00000DF300
00007FA000
0001EF2000
0008F80000
002FE10000
00AF700000
03FD000000
0BF5000000
5FC0000000
DF40000000
ENDCHAR
STARTCHAR Euro
ENCODING 8364
SWIDTH 806 0
DWIDTH 16 0
BBX 16 16 0 -1
BITMAP
0000000002320000
00000017DFFFE810
000002DFFFFFFFE1
00001EFFFBABFFA0
0000AFFC20002A20
02DDFFFDDD000000
05FFFFFFFC000000
059DFFA996000000
067CFF8772000000
0FFFFFFFF3000000
3FFFFFFFE0000000
0000BFFB10001910
00002EFFEA89EF90
000003EFFFFFFFE1
00000018EFFFFA20
0000000003431000
ENDCHAR
STARTCHAR trademark
ENCODING 8482
SWIDTH 606 0
DWIDTH 12 0
BBX 10 6 1 9
BITMAP
0000001010
CFFF3CFDF7
05A02D3D3D
05A03C2D2D
05A03C2D2D
05A03C2D2D
ENDCHAR
STARTCHAR partialdiff
ENCODING 8706
SWIDTH 609 0
DWIDTH 12 0
BBX 12 17 0 -1
BITMAP
000023320000
00004FFE1000
000009FF8000
000001EFF200
0000006FF900
00028BBFFE10
006FFFFFFF60
04FFFEEFFFC0
0DFF6005FFF1
2FFA00009FF4
4FF700005FF5
3FF800007FF4
0EFE2001DFF1
08FFE99EFF90
00BFFFFFFC10
0008EFFE9100
000002200000
ENDCHAR
STARTCHAR product
ENCODING 8719
SWIDTH 632 0
DWIDTH 13 0
BBX 12 14 0 0
BITMAP
4FFFFFFFFFFE
4FFFFFFFFFFE
3CDFFDCEFFCB
007FF50AFF20
007FF50AFF20
007FF50AFF20
007FF50AFF20
007FF50AFF20
007FF50AFF20
007FF50AFF20
007FF50AFF20
007FF50AFF20
007FF50AFF20
007FF50AFF20
ENDCHAR
STARTCHAR minus
ENCODING 8722
SWIDTH 543 0
DWIDTH 11 0
BBX 9 4 1 5
BITMAP
4666666630
AFFFFFFF80
AFFFFFFF80
2444444420
ENDCHAR
STARTCHAR infinity
ENCODING 8734
SWIDTH 771 0
DWIDTH 15 0
BBX 15 10 0 2
BITMAP
0000210000100000
004DFF915DFE8000
03FFFFFDFFFFF900
0CFFAEFFFDBFFF30
1FF901EFF105FF70
2FF7008FF101FF90
1FFD21BFF906FF70
09FFFFFFFFEFFE20
01DFFFFAEFFFF700
0018BB6029CB4000
ENDCHAR
STARTCHAR approxequal
ENCODING 8776
SWIDTH 476 0
DWIDTH 10 0
BBX 8 8 1 3
BITMAP
2CEA0AE3
AFFFCEF4
BF9AFFE1
6A506930
17A507A2
8FFF8DF4
BFCDFFF2
9F62BD70
ENDCHAR
STARTCHAR notequal
ENCODING 8800
SWIDTH 512 0
DWIDTH 10 0
BBX 9 13 1 0
BITMAP
00001EF700
00006FF200
6666CFD610
FFFFFFFF30
FFFFFFFF30
444EFA4410
668FF96610
FFFFFFFF30
FFFFFFFF30
49FF544410
0BFB000000
2FF5000000
1330000000
ENDCHAR
STARTCHAR fi
ENCODING 64257
SWIDTH 650 0
DWIDTH 13 0
BBX 13 16 0 0
BITMAP
00003799400000
0008FFFF68FC10
007FFFFF7FFF60
00EFE5110DFF30
03FF8000016300
49FFA777777700
8FFFFFFFFFFF00
8FFFFFFFFFFF00
26FF83333BFF00
04FF60000AFF00
04FF60000AFF00
04FF60000AFF00
04FF60000AFF00
04FF60000AFF00
04FF60000AFF00
04FF60000AFF00
ENDCHAR
STARTCHAR fl
ENCODING 64258
SWIDTH 631 0
DWIDTH 13 0
BBX 12 16 0 0
BITMAP
000037999996
0008FFFFFFFA
007FFFFFFFFA
00EFE5112FFA
03FF80001FFA
49FFA7751FFA
8FFFFFFA1FFA
8FFFFFFA1FFA
26FF83321FF9
04FF60001FF9
04FF60001FF9
04FF60001FF9
04FF60001FF9
04FF60001FF9
04FF60001FF9
04FF60001FF9
ENDCHAR
STARTCHAR .notdef
ENCODING -1
SWIDTH 279 0
DWIDTH 6 0
BBX 1 1 0 0
BITMAP
00
ENDCHAR
STARTCHAR .null
ENCODING -1
SWIDTH 0 0
DWIDTH 0 0
BBX 1 1 0 0
BITMAP
00
ENDCHAR
STARTCHAR nonmarkingreturn
ENCODING -1
SWIDTH 279 0
DWIDTH 6 0
BBX 1 1 0 0
BITMAP
00
ENDCHAR
ENDFONT
